<?xml version="1.0" encoding="utf-8"?>
<!-- Generator: Adobe Illustrator 16.0.0, SVG Export Plug-In . SVG Version: 6.00 Build 0)  -->
<!DOCTYPE svg PUBLIC "-//W3C//DTD SVG 1.1//EN" "http://www.w3.org/Graphics/SVG/1.1/DTD/svg11.dtd">
<svg version="1.1" id="Calque_1" xmlns="http://www.w3.org/2000/svg" xmlns:xlink="http://www.w3.org/1999/xlink" x="0px" y="0px"
	 width="237px" height="236.891px" viewBox="0 0 237 236.891" enable-background="new 0 0 237 236.891" xml:space="preserve">
<g id="Calque_1_2_" display="none">
	<g id="Calque_2" display="inline">
		<g id="Avatar">
			<rect x="61.453" y="369.132" fill="#384C81" width="233.863" height="233.863"/>
			<path fill="#E74C3D" stroke="#000000" stroke-linecap="round" stroke-miterlimit="10" d="M88.198,567.995
				c-11.077-32.463-0.561-66.93-0.561-66.93l11.636,31.445c0,0-2.054,23.666,5.605,34.149l-6.427,5.202L88.198,567.995z"/>
			<path fill="#95A5A4" stroke="#000000" stroke-linecap="round" stroke-miterlimit="10" d="M268.84,602.996l-11.751-34.017
				c-5.063-1.931-9.825-1.973-9.825-1.973l-137.431-0.757c0,0-4.842-0.188-9.907,1.742l-1.474,34.683"/>
			<path fill="#7E8C8D" stroke="#000000" stroke-linecap="round" stroke-miterlimit="10" d="M271.189,503.923
				c-5.938,0-10.758-3.962-10.758-8.85v-39.536c0-4.884,4.817-8.847,10.758-8.847h3.33c5.938,0,10.758,3.963,10.758,8.847v39.536
				c0,4.888-4.819,8.85-10.758,8.85H271.189z"/>
			<path fill="#95A5A4" stroke="#000000" stroke-linecap="round" stroke-miterlimit="10" d="M135.536,568.673
				c-29.598-16.549-49.767-49.454-49.767-87.35c0-54.521,41.75-98.721,93.252-98.721c51.5,0,93.25,44.198,93.25,98.721
				c0,36.994-19.229,69.234-47.679,86.142"/>
			<path fill="#C13A2B" stroke="#000000" stroke-linecap="round" stroke-miterlimit="10" d="M244.939,508.102
				c0,22.857-17.631,41.393-39.375,41.393H154.67c-21.745,0-39.374-18.532-39.374-41.393v-17.391
				c0-28.684,16.456-32.537,27.067-32.537c13.857,0,19.936,4.818,37.3,4.818c15.757,0,21.555-4.311,38.594-4.597
				c13.177-0.225,26.683,1.382,26.683,32.313V508.102L244.939,508.102z"/>
			<path fill="#B9C8E7" stroke="#000000" stroke-linecap="round" stroke-miterlimit="10" d="M238.966,507.54
				c0,19.843-16.005,35.932-35.745,35.932h-46.207c-19.74,0-35.744-16.089-35.744-35.932v-15.096
				c0-24.9,14.938-28.247,24.572-28.247c12.582,0,18.102,4.184,33.865,4.184c14.305,0,19.568-3.738,35.037-3.989
				c11.962-0.191,24.222,1.198,24.222,28.056V507.54L238.966,507.54z"/>
			<path fill="none" stroke="#000000" stroke-miterlimit="10" d="M180.118,390.323c0,0,3.405,30.225,0,65.923"/>
			
				<ellipse fill="#E74C3D" stroke="#000000" stroke-linecap="round" stroke-miterlimit="10" cx="170.691" cy="402.666" rx="2.619" ry="3.017"/>
			<path fill="#E74C3D" stroke="#000000" stroke-linecap="round" stroke-miterlimit="10" d="M173.311,421.838
				c0,1.667-1.172,3.015-2.621,3.015c-1.442,0-2.617-1.348-2.617-3.015c0-1.669,1.175-3.021,2.617-3.021
				C172.139,418.818,173.311,420.169,173.311,421.838z"/>
			
				<ellipse fill="#E74C3D" stroke="#000000" stroke-linecap="round" stroke-miterlimit="10" cx="170.691" cy="441.009" rx="2.619" ry="3.017"/>
			
				<ellipse fill="#E74C3D" stroke="#000000" stroke-linecap="round" stroke-miterlimit="10" cx="190.598" cy="402.666" rx="2.62" ry="3.017"/>
			<path fill="#E74C3D" stroke="#000000" stroke-linecap="round" stroke-miterlimit="10" d="M193.218,421.838
				c0,1.667-1.172,3.015-2.62,3.015c-1.445,0-2.619-1.348-2.619-3.015c0-1.669,1.174-3.021,2.619-3.021
				C192.046,418.818,193.218,420.169,193.218,421.838z"/>
			
				<ellipse fill="#E74C3D" stroke="#000000" stroke-linecap="round" stroke-miterlimit="10" cx="190.598" cy="441.009" rx="2.62" ry="3.017"/>
			<path fill="#FFFFFF" stroke="#000000" stroke-linecap="round" stroke-miterlimit="10" d="M179.021,534.631"/>
			<path fill="#7E8C8D" stroke="#000000" stroke-linecap="round" stroke-miterlimit="10" d="M109.833,566.252l1.718,0.802
				c13.854,6.148,38.889,10.256,67.471,10.256c27.358,0,51.47-3.763,65.631-9.479l2.232-0.836c1.958-6.546-4.177-9.194-6.791-10.011
				c-11.64,5.896-34.619,9.911-61.072,9.911c-26.91,0-50.215-4.155-61.654-10.221h-0.006
				C117.36,556.677,107.369,558.01,109.833,566.252z"/>
			<path fill="#7E8C8D" stroke="#000000" stroke-linecap="round" stroke-miterlimit="10" d="M101.399,603.007
				c0,0,8.434-36.013-6.093-36.755c-4.343-0.223-9.055,1.971-10.822,5.531"/>
			<path fill="#7E8C8D" stroke="#000000" stroke-linecap="round" stroke-miterlimit="10" d="M100.506,602.347
				c0,0-9.692-36.605-22.43-29.589c-3.808,2.103-5.99,5.104-6.406,8.928"/>
			<path fill="#7E8C8D" stroke="#000000" stroke-linecap="round" stroke-miterlimit="10" d="M99.791,603.007
				c0,0-25.71-30.021-34.204-18.216c-2.54,3.529-2.7,8.271-1.2,12.29"/>
			<path fill="#7E8C8D" stroke="#000000" stroke-linecap="round" stroke-miterlimit="10" d="M98.453,602.989
				c0,0-31.888-17.242-35.168-3.071c-0.179,0.776-0.279,2.329-0.294,3.092"/>
			<path fill="#7E8C8D" stroke="#000000" stroke-linecap="round" stroke-miterlimit="10" d="M255.617,602.827
				c0,0-8.354-35.075,6.174-35.817c4.343-0.223,9.055,1.974,10.822,5.532"/>
			<path fill="#7E8C8D" stroke="#000000" stroke-linecap="round" stroke-miterlimit="10" d="M256.352,602.827
				c0,0,9.933-36.33,22.67-29.313c3.81,2.102,5.988,5.104,6.404,8.93"/>
			<path fill="#7E8C8D" stroke="#000000" stroke-linecap="round" stroke-miterlimit="10" d="M257.225,602.827
				c0,0,25.793-29.083,34.285-17.277c2.541,3.528,2.701,8.271,1.201,12.29"/>
			<path fill="#7E8C8D" stroke="#000000" stroke-linecap="round" stroke-miterlimit="10" d="M258.563,602.805
				c0,0,31.972-16.304,35.25-2.133c0.096,0.402,0.217,1.604,0.268,2.004"/>
			<path fill="none" stroke="#000000" stroke-linecap="round" stroke-miterlimit="10" d="M109.441,578.43
				c0,0,23.276,16.077,69.581,16.077c46.307,0,65.918-16.077,65.918-16.077"/>
			<path fill="#E74C3D" stroke="#000000" stroke-linecap="round" stroke-miterlimit="10" d="M134.752,581.222
				c0,1.667-1.172,3.018-2.621,3.018c-1.445,0-2.619-1.351-2.619-3.018c0-1.669,1.174-3.021,2.619-3.021
				C133.58,578.203,134.752,579.553,134.752,581.222z"/>
			<path fill="#E74C3D" stroke="#000000" stroke-linecap="round" stroke-miterlimit="10" d="M227.359,580.317
				c0,1.668-1.172,3.015-2.621,3.015c-1.444,0-2.618-1.347-2.618-3.015c0-1.671,1.174-3.021,2.618-3.021
				C226.188,577.294,227.359,578.646,227.359,580.317z"/>
			<path fill="#E74C3D" stroke="#000000" stroke-linecap="round" stroke-miterlimit="10" d="M157.249,585.792
				c0,1.667-1.172,3.015-2.619,3.015c-1.446,0-2.618-1.348-2.618-3.015c0-1.67,1.172-3.021,2.618-3.021
				C156.077,582.774,157.249,584.123,157.249,585.792z"/>
			<path fill="#E74C3D" stroke="#000000" stroke-linecap="round" stroke-miterlimit="10" d="M204.863,585.792
				c0,1.667-1.172,3.015-2.622,3.015c-1.443,0-2.619-1.348-2.619-3.015c0-1.67,1.176-3.021,2.619-3.021
				C203.691,582.774,204.863,584.123,204.863,585.792z"/>
			<path fill="#E74C3D" stroke="#000000" stroke-linecap="round" stroke-miterlimit="10" d="M180.973,587.261
				c0,1.667-1.172,3.018-2.621,3.018c-1.442,0-2.619-1.351-2.619-3.018c0-1.67,1.177-3.021,2.619-3.021
				C179.801,584.242,180.973,585.592,180.973,587.261z"/>
			
				<line fill="none" stroke="#000000" stroke-linecap="round" stroke-miterlimit="10" x1="132.133" y1="593.516" x2="132.133" y2="602.677"/>
			
				<line fill="none" stroke="#000000" stroke-linecap="round" stroke-miterlimit="10" x1="138.184" y1="595.119" x2="138.184" y2="602.677"/>
			
				<line fill="none" stroke="#000000" stroke-linecap="round" stroke-miterlimit="10" x1="227.359" y1="593.516" x2="227.359" y2="602.677"/>
			
				<line fill="none" stroke="#000000" stroke-linecap="round" stroke-miterlimit="10" x1="221.311" y1="595.119" x2="221.311" y2="602.677"/>
			
				<line fill="none" stroke="#000000" stroke-linecap="round" stroke-miterlimit="10" x1="175.732" y1="598.531" x2="175.732" y2="602.677"/>
			
				<line fill="none" stroke="#000000" stroke-linecap="round" stroke-miterlimit="10" x1="180.875" y1="598.531" x2="180.875" y2="602.677"/>
			<path fill="#FFFFFF" d="M178.824,468.365c-4.883-0.052-8.778-0.501-12.215-1.097l-30.313,41.116
				c-1.687,2.289-2.231,4.752-1.221,5.5l4.812,3.544c1.016,0.75,3.205-0.501,4.896-2.793l33.422-45.331
				C178.432,468.994,178.637,468.678,178.824,468.365z"/>
			<path fill="#FFFFFF" d="M214.744,464.39c-1.775,0.028-3.401,0.107-4.936,0.22l-53.291,72.283
				c-1.733,2.354-3.002,4.623-3.631,6.319c1.354,0.156,2.729,0.258,4.127,0.258h7.732c0.085-0.11,0.17-0.213,0.254-0.328
				l57.771-78.355C220.18,464.388,217.456,464.347,214.744,464.39z"/>
			<path fill="#FFFFFF" d="M238.966,492.446c0-2.938-0.153-5.556-0.432-7.911l-43.451,58.938h8.138c1.797,0,3.549-0.177,5.276-0.436
				l30.468-41.324L238.966,492.446L238.966,492.446z"/>
			<path fill="none" stroke="#000000" stroke-linecap="round" stroke-miterlimit="10" d="M84.484,516.39
				c0,0,4.307,7.524,10.875,8.576"/>
			<path fill="none" stroke="#000000" stroke-linecap="round" stroke-miterlimit="10" d="M83.237,529.872
				c0,0,3.052,7.292,14.7,6.568"/>
			<path fill="none" stroke="#000000" stroke-linecap="round" stroke-miterlimit="10" d="M83.412,543.47
				c0,0,6.698,6.954,15.862,3.191"/>
			<path fill="none" stroke="#000000" stroke-linecap="round" stroke-miterlimit="10" d="M85.769,555.681c0,0,7.046,4.823,14.737,0"
				/>
			
				<line fill="none" stroke="#000000" stroke-linecap="round" stroke-miterlimit="10" x1="271.189" y1="446.694" x2="271.189" y2="411.464"/>
			
				<line fill="none" stroke="#000000" stroke-linecap="round" stroke-miterlimit="10" x1="278.736" y1="447.399" x2="278.736" y2="426.658"/>
			<circle fill="#E74C3D" stroke="#000000" stroke-linecap="round" stroke-miterlimit="10" cx="271.189" cy="409.008" r="3.326"/>
			<circle fill="#E74C3D" stroke="#000000" stroke-linecap="round" stroke-miterlimit="10" cx="278.736" cy="424.782" r="3.326"/>
			
				<rect x="61.453" y="369.132" fill="none" stroke="#000000" stroke-linecap="round" stroke-miterlimit="10" width="233.863" height="233.863"/>
		</g>
		<g id="Planète">
			
				<ellipse fill="#FFFFFF" stroke="#000000" stroke-linecap="round" stroke-miterlimit="10" cx="94.047" cy="93.017" rx="19.545" ry="7.135"/>
			<path fill="#FFFFFF" stroke="#000000" stroke-linecap="round" stroke-miterlimit="10" d="M161.464,84.49
				c0.74,3.867-7.255,8.65-17.854,10.68c-10.603,2.032-19.797,0.542-20.539-3.328c-0.738-3.871,7.255-8.651,17.854-10.683
				C151.527,79.128,160.723,80.619,161.464,84.49z"/>
			<path fill="#FFFFFF" stroke="#000000" stroke-linecap="round" stroke-miterlimit="10" d="M25.205,84.49
				c-0.739,3.867,7.255,8.65,17.854,10.68c10.602,2.032,19.797,0.542,20.538-3.328c0.741-3.871-7.253-8.651-17.854-10.683
				C35.142,79.127,25.947,80.619,25.205,84.49z"/>
			<path fill="#FFFFFF" stroke="#000000" stroke-linecap="round" stroke-miterlimit="10" d="M182.418,68.976h-13.094
				c-10.396-7.391-40.619-12.735-76.298-12.735c-35.681,0-65.899,5.348-76.297,12.735H3.854L16.997,80.46l0,0l0,0l0,0
				c10.635,7.295,40.644,12.558,76.03,12.558c35.388,0,65.396-5.263,76.032-12.558l0,0L182.418,68.976z"/>
			
				<ellipse fill="#FFFFFF" stroke="#000000" stroke-linecap="round" stroke-miterlimit="10" cx="93.138" cy="63.443" rx="92.365" ry="21.186"/>
			
				<ellipse fill="#FFFFFF" stroke="#000000" stroke-linecap="round" stroke-miterlimit="10" cx="93.137" cy="58.933" rx="80.173" ry="18.391"/>
			<path fill="#FFFFFF" stroke="#000000" stroke-linecap="round" stroke-miterlimit="10" d="M157.725,53.965L157.725,53.965
				c-10.877-15.818-40.305-33.32-64.583-33.32c-25.009,0-55.158,17.843-65.185,34.36l0,0c-0.194,0.47-0.303,0.945-0.303,1.429
				c0,8.295,29.316,15.022,65.483,15.022c36.167,0,65.485-6.729,65.485-15.022C158.621,55.594,158.305,54.769,157.725,53.965z"/>
			<path fill="#FFFFFF" stroke="#000000" stroke-linecap="round" stroke-miterlimit="10" d="M78.906,28.265
				c-1.314-1.615-11.074,4.172-21.803,12.922c-10.727,8.75-18.356,17.147-17.041,18.764c1.314,1.611,11.075-4.176,21.801-12.926
				C72.595,38.275,80.223,29.875,78.906,28.265z"/>
			
				<ellipse transform="matrix(0.667 0.7451 -0.7451 0.667 57.3073 -50.3536)" fill="#FFFFFF" stroke="#000000" stroke-linecap="round" stroke-miterlimit="10" cx="84.983" cy="38.931" rx="3.314" ry="13.736"/>
			<path fill="#FFFFFF" stroke="#000000" stroke-linecap="round" stroke-miterlimit="10" d="M144.896,48.067
				c1.213-1.579,2.277-3.143,3.174-4.607c-1.479-1.287-3.047-2.559-4.688-3.8c-1.221,1.271-2.491,2.742-3.743,4.375
				c-4.619,6.018-7.185,11.798-5.729,12.909C135.355,58.06,140.279,54.085,144.896,48.067z"/>
			<path fill="#FFFFFF" stroke="#000000" stroke-linecap="round" stroke-miterlimit="10" d="M113.839,70.685
				c0.158-0.166,0.317-0.324,0.476-0.492c9.574-10,16.115-19.271,14.61-20.709c-1.501-1.439-10.479,5.499-20.052,15.5
				c-2.066,2.158-3.98,4.276-5.714,6.299C106.829,71.15,110.395,70.948,113.839,70.685z"/>
			
				<line fill="none" stroke="#000000" stroke-linecap="round" stroke-miterlimit="10" x1="67.912" y1="100.152" x2="55.892" y2="143.406"/>
			
				<line fill="none" stroke="#000000" stroke-linecap="round" stroke-miterlimit="10" x1="120.041" y1="100.152" x2="131.553" y2="143.406"/>
			
				<line fill="none" stroke="#000000" stroke-linecap="round" stroke-miterlimit="10" x1="61.902" y1="100.152" x2="39.913" y2="143.406"/>
			
				<line fill="none" stroke="#000000" stroke-linecap="round" stroke-miterlimit="10" x1="125.797" y1="100.152" x2="146.96" y2="143.406"/>
		</g>
		<g>
			
				<rect x="395.832" y="144.817" fill="#FFFFFF" stroke="#000000" stroke-linecap="round" stroke-miterlimit="10" width="120.201" height="4"/>
			<path fill="#FFFFFF" stroke="#000000" stroke-linecap="round" stroke-miterlimit="10" d="M398.699,120.097
				c-3.674,8.154-5.736,17.193-5.736,26.72c0,9.525,2.063,18.564,5.736,26.723V120.097z"/>
			<path fill="#FFFFFF" stroke="#000000" stroke-linecap="round" stroke-miterlimit="10" d="M408.105,188.558
				c5.512,6.595,12.309,12.071,20,16.069V89.008c-7.691,3.998-14.488,9.476-20,16.07V188.558z"/>
			<path fill="#FFFFFF" stroke="#000000" stroke-linecap="round" stroke-miterlimit="10" d="M437.438,208.583
				c4.475,1.495,9.154,2.536,14,3.025V82.025c-4.846,0.492-9.525,1.532-14,3.026V208.583z"/>
			<path fill="#FFFFFF" stroke="#000000" stroke-linecap="round" stroke-miterlimit="10" d="M459.629,211.907
				c5.945-0.14,11.693-1.064,17.143-2.694V84.422c-5.447-1.629-11.195-2.556-17.143-2.693V211.907z"/>
			<path fill="#FFFFFF" stroke="#000000" stroke-linecap="round" stroke-miterlimit="10" d="M489.217,204.039
				c3.629-1.979,7.049-4.291,10.219-6.897V96.494c-3.17-2.606-6.59-4.92-10.219-6.898V204.039z"/>
			<path fill="#FFFFFF" stroke="#000000" stroke-linecap="round" stroke-miterlimit="10" d="M516.033,176.547
				c4.584-8.916,7.188-19.016,7.188-29.729c0-10.713-2.604-20.813-7.188-29.729V176.547z"/>
		</g>
		<g>
			<circle fill="#FFFFFF" stroke="#000000" stroke-miterlimit="10" cx="454.498" cy="384.932" r="74.262"/>
			<path fill="#FFFFFF" stroke="#000000" stroke-miterlimit="10" d="M414.164,368.356c-4.844,11.98-6.793,25.557-15.664,35.533
				c-6.313-18.938,9.904-58.136,20-74C423.809,340.505,417.287,357.89,414.164,368.356
				C413.389,370.279,415.176,364.969,414.164,368.356z"/>
			<path fill="#FFFFFF" stroke="#000000" stroke-miterlimit="10" d="M439.889,393.135c8.332-15.213,12.77-32.443,23.611-46.246
				c-0.986,31.519-15.4,69.756-29,98C434.5,427.305,431.656,409.02,439.889,393.135
				C442.105,388.856,439.889,393.135,439.889,393.135z"/>
			<path fill="#FFFFFF" stroke="#000000" stroke-miterlimit="10" d="M453.727,310.604c-24.434,3.184-26.227,48.889-26.227,67.285
				C429.781,371.042,456.396,310.611,453.727,310.604C441.113,312.248,454.227,310.606,453.727,310.604z"/>
			<path fill="#FFFFFF" stroke="#000000" stroke-miterlimit="10" d="M491.139,372.758c-16.6,26.438-17.324,58.396-30.639,86.132
				c16.809-4.88,24.682-19.899,27.838-36.022C489.322,417.823,496.217,374.178,491.139,372.758
				C489.559,375.275,491.957,372.987,491.139,372.758z"/>
			<path fill="#FFFFFF" stroke="#000000" stroke-miterlimit="10" d="M522.828,355.813c-1.111-2.27-2.223-4.537-3.334-6.807
				c-15.311,20.438-11.186,49.354-12.994,72.882C521.574,406.815,520.691,375.628,522.828,355.813
				C521.832,353.479,522.637,357.596,522.828,355.813z"/>
			<path fill="#FFFFFF" stroke="#000000" stroke-miterlimit="10" d="M560.174,352.115c-3.439-11.078-23.188-16.319-49.15-15.342
				c2.219,2.91,3.834,4.972,7.584,10.66c12.264,1.455,20.145,4.252,22.146,10.711c4.936,15.893-29.684,40.768-77.318,55.562
				c-47.639,14.794-90.26,13.907-95.191-1.984c-2.023-6.522,2.619-14.563,12.098-22.801c-0.064-1.263-0.104-2.586-0.104-3.987
				c0-2.514,0.127-4.998,0.371-7.447c-22.594,14.095-35.279,29.02-31.787,40.27c6.047,19.467,58.264,20.559,116.625,2.432
				C523.809,402.057,566.221,371.582,560.174,352.115z"/>
		</g>
	</g>
	<g id="Calque_3" display="inline">
		<g id="LignesDerriereAvatar">
			<circle fill="#E6E6E6" cx="-80.232" cy="36.652" r="3.601"/>
			<circle fill="#E6E6E6" cx="-55.922" cy="198.718" r="3.601"/>
			<circle fill="#E6E6E6" cx="322.232" cy="9.641" r="3.602"/>
			<circle fill="#E6E6E6" cx="303.324" cy="228.429" r="3.602"/>
			
				<line fill="none" stroke="#E6E6E6" stroke-width="0.5" stroke-miterlimit="10" x1="-80.232" y1="36.652" x2="303.324" y2="228.428"/>
			
				<line fill="none" stroke="#E6E6E6" stroke-width="0.5" stroke-miterlimit="10" x1="-80.232" y1="36.652" x2="11.604" y2="142.118"/>
			
				<line fill="none" stroke="#E6E6E6" stroke-width="0.5" stroke-miterlimit="10" x1="-55.922" y1="198.718" x2="54.147" y2="46.943"/>
			
				<line fill="none" stroke="#E6E6E6" stroke-width="0.5" stroke-miterlimit="10" x1="-55.922" y1="198.718" x2="322.23" y2="9.641"/>
		</g>
		<g id="Avatar_161_">
			<circle fill="#E6E6E6" stroke="#359792" stroke-linecap="round" stroke-miterlimit="10" cx="120.25" cy="118.447" r="111.428"/>
			<path fill="#E6E6E6" stroke="#359792" stroke-linecap="round" stroke-miterlimit="10" d="M46.723,185.234
				c-9.028-26.465-0.455-54.563-0.455-54.563l9.487,25.64c0,0-1.674,19.294,4.567,27.841l-5.237,4.24L46.723,185.234z"/>
			<path fill="#E6E6E6" stroke="#359792" stroke-linecap="round" stroke-miterlimit="10" d="M178.032,213.74
				c4.489-2.729,8.771-5.771,12.812-9.084l-6.432-18.616c-4.129-1.574-8.01-1.607-8.01-1.607L64.36,183.817
				c0,0-3.946-0.15-8.076,1.419l-1.008,23.74c2.222,1.599,4.502,3.114,6.843,4.549"/>
			<path fill="#E6E6E6" stroke="#359792" stroke-linecap="round" stroke-miterlimit="10" d="M195.908,133
				c-4.84,0-8.77-3.229-8.77-7.214V93.552c0-3.979,3.93-7.21,8.77-7.21h2.715c4.842,0,8.77,3.23,8.77,7.21v32.233
				c0,3.981-3.927,7.214-8.77,7.214L195.908,133L195.908,133z"/>
			<path fill="#E6E6E6" stroke="#359792" stroke-linecap="round" stroke-miterlimit="10" d="M85.317,185.789
				c-24.129-13.492-40.572-40.318-40.572-71.213c0-44.447,34.037-80.479,76.022-80.479c41.984,0,76.021,36.031,76.021,80.479
				c0,30.156-15.673,56.444-38.866,70.227"/>
			<path fill="#E6E6E6" stroke="#359792" stroke-linecap="round" stroke-miterlimit="10" d="M174.509,136.409
				c0,18.635-14.374,33.74-32.102,33.74h-41.491c-17.727,0-32.099-15.105-32.099-33.74v-14.181
				c0-23.383,13.414-26.523,22.065-26.523c11.298,0,16.253,3.928,30.41,3.928c12.845,0,17.573-3.512,31.463-3.746
				c10.743-0.182,21.753,1.126,21.753,26.345L174.509,136.409L174.509,136.409z"/>
			<path fill="#E6E6E6" stroke="#359792" stroke-linecap="round" stroke-miterlimit="10" d="M169.639,135.949
				c0,16.175-13.048,29.293-29.141,29.293h-37.669c-16.094,0-29.141-13.118-29.141-29.293v-12.309
				c0-20.302,12.178-23.026,20.031-23.026c10.256,0,14.758,3.408,27.61,3.408c11.662,0,15.953-3.047,28.563-3.252
				c9.75-0.156,19.746,0.979,19.746,22.87V135.949L169.639,135.949z"/>
			<path fill="#E6E6E6" stroke="#359792" stroke-miterlimit="10" d="M121.663,40.386c0,0,2.774,24.643,0,53.744"/>
			<path fill="#E6E6E6" stroke="#359792" stroke-linecap="round" stroke-miterlimit="10" d="M116.113,50.451
				c0,1.357-0.955,2.458-2.137,2.458c-1.178,0-2.137-1.101-2.137-2.458c0-1.36,0.958-2.461,2.137-2.461
				C115.159,47.99,116.113,49.09,116.113,50.451z"/>
			<path fill="#E6E6E6" stroke="#359792" stroke-linecap="round" stroke-miterlimit="10" d="M116.113,66.079
				c0,1.36-0.955,2.46-2.137,2.46c-1.178,0-2.137-1.1-2.137-2.46c0-1.359,0.958-2.461,2.137-2.461
				C115.159,63.618,116.113,64.719,116.113,66.079z"/>
			
				<ellipse fill="#E6E6E6" stroke="#359792" stroke-linecap="round" stroke-miterlimit="10" cx="113.977" cy="81.708" rx="2.137" ry="2.459"/>
			<path fill="#E6E6E6" stroke="#359792" stroke-linecap="round" stroke-miterlimit="10" d="M132.342,50.451
				c0,1.357-0.953,2.458-2.137,2.458c-1.178,0-2.135-1.101-2.135-2.458c0-1.36,0.957-2.461,2.135-2.461
				C131.389,47.99,132.342,49.09,132.342,50.451z"/>
			<path fill="#E6E6E6" stroke="#359792" stroke-linecap="round" stroke-miterlimit="10" d="M132.342,66.079
				c0,1.36-0.953,2.46-2.137,2.46c-1.178,0-2.135-1.1-2.135-2.46c0-1.359,0.957-2.461,2.135-2.461
				C131.389,63.618,132.342,64.719,132.342,66.079z"/>
			<path fill="#E6E6E6" stroke="#359792" stroke-linecap="round" stroke-miterlimit="10" d="M132.342,81.708
				c0,1.358-0.953,2.459-2.137,2.459c-1.178,0-2.135-1.101-2.135-2.459c0-1.359,0.957-2.462,2.135-2.462
				C131.389,79.247,132.342,80.348,132.342,81.708z"/>
			<path fill="#E6E6E6" stroke="#359792" stroke-linecap="round" stroke-miterlimit="10" d="M120.77,158.036"/>
			<path fill="#E6E6E6" stroke="#359792" stroke-linecap="round" stroke-miterlimit="10" d="M64.362,183.815l1.4,0.651
				c11.296,5.015,31.705,8.363,55.007,8.363c22.303,0,41.959-3.068,53.506-7.729l1.816-0.682c1.598-5.337-3.404-7.495-5.533-8.161
				c-9.49,4.809-28.224,8.08-49.791,8.08c-21.938,0-40.938-3.388-50.268-8.33h-0.004C70.499,176.008,62.354,177.095,64.362,183.815z
				"/>
			<path fill="#E6E6E6" stroke="#359792" stroke-linecap="round" stroke-miterlimit="10" d="M64.043,193.744
				c0,0,18.975,13.104,56.725,13.104c37.75,0,53.741-13.104,53.741-13.104"/>
			<path fill="#E6E6E6" stroke="#359792" stroke-linecap="round" stroke-miterlimit="10" d="M84.679,196.019
				c0,1.356-0.956,2.458-2.138,2.458c-1.178,0-2.134-1.102-2.134-2.458c0-1.359,0.956-2.463,2.134-2.463
				C83.723,193.556,84.679,194.658,84.679,196.019z"/>
			<path fill="#E6E6E6" stroke="#359792" stroke-linecap="round" stroke-miterlimit="10" d="M160.178,195.279
				c0,1.358-0.957,2.456-2.138,2.456c-1.179,0-2.134-1.098-2.134-2.456c0-1.359,0.955-2.463,2.134-2.463
				C159.221,192.816,160.178,193.917,160.178,195.279z"/>
			<path fill="#E6E6E6" stroke="#359792" stroke-linecap="round" stroke-miterlimit="10" d="M103.018,199.743
				c0,1.357-0.954,2.458-2.135,2.458c-1.18,0-2.135-1.101-2.135-2.458c0-1.36,0.956-2.461,2.135-2.461
				C102.064,197.282,103.018,198.382,103.018,199.743z"/>
			<path fill="#E6E6E6" stroke="#359792" stroke-linecap="round" stroke-miterlimit="10" d="M141.836,199.743
				c0,1.357-0.956,2.458-2.137,2.458c-1.178,0-2.135-1.101-2.135-2.458c0-1.36,0.957-2.461,2.135-2.461
				C140.881,197.282,141.836,198.382,141.836,199.743z"/>
			<path fill="#E6E6E6" stroke="#359792" stroke-linecap="round" stroke-miterlimit="10" d="M122.359,200.942
				c0,1.357-0.957,2.458-2.137,2.458s-2.137-1.101-2.137-2.458c0-1.359,0.957-2.462,2.137-2.462S122.359,199.581,122.359,200.942z"
				/>
			
				<line fill="none" stroke="#359792" stroke-linecap="round" stroke-miterlimit="10" x1="82.542" y1="206.042" x2="82.542" y2="223.33"/>
			
				<line fill="none" stroke="#359792" stroke-linecap="round" stroke-miterlimit="10" x1="87.476" y1="207.345" x2="87.476" y2="224.582"/>
			
				<line fill="none" stroke="#359792" stroke-linecap="round" stroke-miterlimit="10" x1="160.178" y1="206.042" x2="160.178" y2="222.502"/>
			
				<line fill="none" stroke="#359792" stroke-linecap="round" stroke-miterlimit="10" x1="155.245" y1="207.345" x2="155.245" y2="224.262"/>
			
				<line fill="none" stroke="#359792" stroke-linecap="round" stroke-miterlimit="10" x1="118.088" y1="210.127" x2="118.088" y2="229.851"/>
			
				<line fill="none" stroke="#359792" stroke-linecap="round" stroke-miterlimit="10" x1="122.279" y1="210.127" x2="122.279" y2="229.851"/>
			<path fill="#E6E6E6" stroke="#359792" stroke-linecap="round" stroke-miterlimit="10" d="M120.607,104.01
				c-3.979-0.041-7.156-0.408-9.958-0.894l-24.715,33.521c-1.373,1.866-1.818,3.874-0.994,4.485l3.922,2.889
				c0.828,0.61,2.615-0.408,3.989-2.277l27.25-36.956C120.288,104.524,120.456,104.268,120.607,104.01z"/>
			<path fill="#E6E6E6" stroke="#359792" stroke-linecap="round" stroke-miterlimit="10" d="M149.893,100.772
				c-1.447,0.021-2.771,0.088-4.021,0.179l-43.447,58.931c-1.413,1.916-2.447,3.771-2.958,5.152c1.103,0.128,2.225,0.21,3.364,0.21
				h6.303c0.07-0.094,0.14-0.176,0.208-0.27l47.102-63.882C154.322,100.769,152.102,100.738,149.893,100.772z"/>
			<path fill="#E6E6E6" stroke="#359792" stroke-linecap="round" stroke-miterlimit="10" d="M169.639,123.642
				c0-2.395-0.125-4.524-0.352-6.45l-35.424,48.052h6.634c1.465,0,2.896-0.146,4.302-0.354l24.84-33.689V123.642L169.639,123.642z"
				/>
			<path fill="#E6E6E6" stroke="#359792" stroke-linecap="round" stroke-miterlimit="10" d="M43.698,143.165
				c0,0,3.511,6.135,8.866,6.992"/>
			<path fill="#E6E6E6" stroke="#359792" stroke-linecap="round" stroke-miterlimit="10" d="M42.68,154.156
				c0,0,2.488,5.942,11.984,5.354"/>
			<path fill="#E6E6E6" stroke="#359792" stroke-linecap="round" stroke-miterlimit="10" d="M42.823,165.242
				c0,0,5.461,5.669,12.933,2.603"/>
			<path fill="#E6E6E6" stroke="#359792" stroke-linecap="round" stroke-miterlimit="10" d="M44.746,175.198
				c0,0,5.744,3.933,12.013,0"/>
			
				<line fill="none" stroke="#359792" stroke-linecap="round" stroke-miterlimit="10" x1="195.908" y1="86.343" x2="195.908" y2="57.624"/>
			
				<line fill="none" stroke="#359792" stroke-linecap="round" stroke-miterlimit="10" x1="202.063" y1="86.917" x2="202.063" y2="70.009"/>
			<path fill="#E6E6E6" stroke="#359792" stroke-linecap="round" stroke-miterlimit="10" d="M198.621,55.619
				c0,1.499-1.214,2.714-2.712,2.714c-1.497,0-2.709-1.215-2.709-2.714c0-1.495,1.212-2.71,2.709-2.71
				C197.407,52.909,198.621,54.124,198.621,55.619z"/>
			<path fill="#E6E6E6" stroke="#359792" stroke-linecap="round" stroke-miterlimit="10" d="M204.773,68.479
				c0,1.498-1.219,2.713-2.711,2.713c-1.5,0-2.715-1.215-2.715-2.713c0-1.496,1.215-2.709,2.715-2.709
				C203.557,65.77,204.773,66.983,204.773,68.479z"/>
			<circle fill="none" stroke="#359792" stroke-linecap="round" stroke-miterlimit="10" cx="120.25" cy="118.447" r="111.428"/>
			<path fill="#E6E6E6" stroke="#359792" stroke-linecap="round" stroke-miterlimit="10" d="M185.3,208.917
				c7.082-5.103,13.544-11.01,19.243-17.594c-0.652-0.583-1.396-1.115-2.25-1.589C194.561,185.474,188.098,200.806,185.3,208.917z"
				/>
			<path fill="#E6E6E6" stroke="#359792" stroke-linecap="round" stroke-miterlimit="10" d="M188.246,184.429
				c-9.536,0.489-6.977,19.121-5.621,26.36c1.227-0.829,2.432-1.688,3.622-2.563l10.823-19.286
				C195.628,186.039,191.786,184.25,188.246,184.429z"/>
			<path fill="#E6E6E6" stroke="#359792" stroke-linecap="round" stroke-miterlimit="10" d="M38.473,189.119
				c-1.053,0.58-1.941,1.255-2.686,2.003c5.828,6.767,12.455,12.826,19.736,18.028C52.912,201.188,46.421,184.741,38.473,189.119z"
				/>
			<path fill="#E6E6E6" stroke="#359792" stroke-linecap="round" stroke-miterlimit="10" d="M52.521,183.815
				c-3.542-0.184-7.382,1.605-8.823,4.512L54.627,208.5c1.133,0.827,2.278,1.638,3.443,2.423
				C59.442,203.533,62.083,184.302,52.521,183.815z"/>
		</g>
		<g>
			<g>
				<path fill="#FFFFFF" stroke="#000000" stroke-linecap="round" stroke-linejoin="round" stroke-miterlimit="10" d="
					M287.291-122.13c22.543,0,42.82,3.888,56.9,10.083"/>
				<path fill="#FFFFFF" stroke="#000000" stroke-linecap="round" stroke-linejoin="round" stroke-miterlimit="10" d="
					M230.391-112.047c14.078-6.195,34.356-10.083,56.9-10.083"/>
			</g>
			<path fill="#FFFFFF" stroke="#000000" stroke-linecap="round" stroke-linejoin="round" stroke-miterlimit="10" d="
				M287.291-95.598c22.018,0,41.824-5.283,55.576-13.703c-13.752-15.083-33.559-24.552-55.576-24.552
				c-22.02,0-41.826,9.468-55.577,24.552C245.465-100.882,265.271-95.598,287.291-95.598z"/>
			<path fill="#FFFFFF" stroke="#000000" stroke-linecap="round" stroke-linejoin="round" stroke-miterlimit="10" d="
				M344.191-111.736c-14.08,8.619-34.357,14.03-56.9,14.03s-42.822-5.411-56.9-14.03c-12.473,13.681-20.08,31.873-20.08,51.845
				c0,42.516,34.467,76.979,76.98,76.979s76.979-34.465,76.979-76.979C364.27-79.863,356.662-98.055,344.191-111.736z"/>
			<path fill="#FFFFFF" stroke="#000000" stroke-linecap="round" stroke-linejoin="round" stroke-miterlimit="10" d="
				M185.076-36.532l54.445,37.007c14.653,3.519,30.806,5.464,47.77,5.464c16.965,0,33.115-1.946,47.773-5.465l54.363-36.954"/>
			<path fill="none" stroke="#000000" stroke-miterlimit="10" d="M221.211-51.083c-1.511-26.446,5.66-36.563,5.66-36.563
				s12.667,7.999,33.4,9.941c-2.358,18.058,0,35.883,0,35.883"/>
			<path fill="none" stroke="#000000" stroke-miterlimit="10" d="M266.439-41.313c-1.918-19.459,0-35.833,0-35.833
				s9.582,0.999,21.582,0.999s20.25-0.999,20.25-0.999s1.625,19.688,0,36.22"/>
			<path fill="#FFFFFF" stroke="#000000" stroke-linecap="round" stroke-linejoin="round" stroke-miterlimit="10" d="M389.43-36.481
				c-23.156,15.863-60.285,26.146-102.139,26.146c-41.9,0-79.064-10.306-102.215-26.197l25.422-18.979
				c20.967,9.714,47.415,15.345,76.793,15.345c29.182,0,55.951-5.746,76.857-15.345L389.43-36.481z"/>
			<path fill="none" stroke="#000000" stroke-miterlimit="10" d="M354.801-51.083c1.512-26.446-5.66-36.563-5.66-36.563
				s-12.666,7.999-33.398,9.941c2.357,18.058,0,35.883,0,35.883"/>
			<path fill="none" stroke="#000000" stroke-miterlimit="10" d="M275.174-32.607c0,0,12.117,0.552,24,0.006l2.75,15.159
				c-14.633,1.46-29.25,0.025-29.25,0.025L275.174-32.607z"/>
			<path fill="none" stroke="#000000" stroke-miterlimit="10" d="M315.74-33.948c0,0,9.84-1.305,21.904-3.66l6.289,12.229
				c-13.553,4.148-24.092,5.656-24.092,5.656L315.74-33.948z"/>
			<path fill="none" stroke="#000000" stroke-miterlimit="10" d="M350.326-40.929c0,0,12.92-4.219,16.338-5.844l11,9.375
				c-7.688,3.218-19.875,7.625-19.875,7.625L350.326-40.929z"/>
			<path fill="none" stroke="#000000" stroke-miterlimit="10" d="M258.84-33.948c0,0-9.839-1.305-21.902-3.66l-6.291,12.229
				c13.555,4.148,24.092,5.656,24.092,5.656L258.84-33.948z"/>
			<path fill="none" stroke="#000000" stroke-miterlimit="10" d="M224.254-40.929c0,0-12.923-3.969-16.341-5.594l-11.54,8.915
				c7.54,3.835,20.419,7.835,20.419,7.835L224.254-40.929z"/>
			<ellipse fill="none" stroke="#000000" stroke-miterlimit="10" cx="287.253" cy="-1.292" rx="7.083" ry="3.042"/>
			
				<ellipse transform="matrix(0.1358 0.9907 -0.9907 0.1358 272.2147 -319.3416)" fill="none" stroke="#000000" stroke-miterlimit="10" cx="319.153" cy="-3.638" rx="3.042" ry="6.575"/>
			
				<ellipse transform="matrix(0.1355 -0.9908 0.9908 0.1355 224.0453 249.5078)" fill="none" stroke="#000000" stroke-miterlimit="10" cx="254.994" cy="-3.627" rx="3.042" ry="6.576"/>
			<path fill="#FFFFFF" stroke="#000000" stroke-linecap="round" stroke-linejoin="round" stroke-miterlimit="10" d="
				M227.417-11.272c-1.983-0.588-3.872-0.511-5.063,0.078l8.373,5.69c0.608-0.293,1.053-0.71,1.213-1.254
				C232.417-8.368,230.393-10.389,227.417-11.272z"/>
			<path fill="#FFFFFF" stroke="#000000" stroke-linecap="round" stroke-linejoin="round" stroke-miterlimit="10" d="
				M346.162-11.272c-2.977,0.883-5,2.903-4.523,4.517c0.215,0.721,0.91,1.224,1.863,1.493l8.248-5.605
				C350.656-11.746,348.469-11.957,346.162-11.272z"/>
		</g>
		<g>
			<circle fill="#E6E6E6" stroke="#3E3E3E" stroke-width="2" stroke-miterlimit="10" cx="118.229" cy="118.446" r="111.417"/>
			<path fill="#E6E6E6" stroke="#3E3E3E" stroke-width="2" stroke-miterlimit="10" d="M35.015,192.531
				c25.736,4.484,28.212-7.084,55.929-7.309c1.99-0.018,20.462,0.673,19.966-3.535c-0.577-4.897-38.124-8.069-43.259-8.439
				c-12.102-0.87-19.246-8.325,5.499-8.65c15.962-0.21,24.903-0.771,39.434-1.629c8.549-0.506,64.455-14.009,13.771-11.401
				c-17.652,0.907-35.058,0.521-52.758,0.271c-8.975-0.127-27.074-5.604-7.358-8.194c18.33-2.413,35.729-0.889,54.189-5.257
				c1.047-0.246,29.487-5.668,28.25-8.58c-1.367-3.219-141.864,1.563-141.864,1.563"/>
			<path fill="#E6E6E6" stroke="#3E3E3E" stroke-width="2" stroke-miterlimit="10" d="M170.896,133.323
				c-6.935,1.406-14.056,4.155-21.186,5.521c-4.335,0.829-17.199,0.121-19.163,4.841c3.841,2.865,14.084,0.242,18.847,0.717
				c3.984,0.396,12.977,2.629,15.558,5.941c4.075,5.238-5.856,6.677-9.041,7.486c-6.089,1.546-12.21,3.505-17.918,6.194
				c-5.408,2.554-10.864,3.543-15.962,6.109c-1.297,0.652-6.329,1.172-6.938,2.192c-1.289,2.159,3.78,4.462,5.382,5.227
				c2.558,1.223,12.574,4.703,12.321,8.545c-0.269,4.063-11.944,7.688-15.001,8.716c-4.44,1.492-8.467,4.346-12.689,6.353
				c-4.85,2.303-9.975,4.188-14.602,6.834c-4.479,2.561-9.437,6.105-6.525,11.313c1.437,2.565,3.604,4.245,4.885,6.858"/>
			
				<line fill="none" stroke="#3E3E3E" stroke-width="2" stroke-miterlimit="10" x1="148.676" y1="129.803" x2="187.186" y2="128.691"/>
			<circle fill="#E6E6E6" stroke="#3E3E3E" stroke-width="2" stroke-miterlimit="10" cx="96.555" cy="32.089" r="9.858"/>
			<circle fill="#E6E6E6" stroke="#3E3E3E" stroke-width="2" stroke-miterlimit="10" cx="149.286" cy="115.186" r="5.646"/>
			<circle fill="#E6E6E6" stroke="#3E3E3E" stroke-width="2" stroke-miterlimit="10" cx="153.559" cy="66.609" r="29.609"/>
			<line fill="none" stroke="#3E3E3E" stroke-width="2" stroke-miterlimit="10" x1="105.095" y1="37" x2="127.907" y2="51.828"/>
			
				<line fill="none" stroke="#3E3E3E" stroke-width="2" stroke-miterlimit="10" x1="149.286" y1="109.54" x2="151.023" y2="96.217"/>
			<path fill="#E6E6E6" stroke="#3E3E3E" stroke-width="2" stroke-miterlimit="10" d="M29.834,163.293
				c2.988-6.913,4.101-24.453,4.478-30.648c1.037-17.049,1.824-34.024,3.413-51.045c4.001,14.813,3.837,32.015,3.202,47.16
				c-0.323,7.693,3.476,30.624,6.499,36.488"/>
			<path fill="#E6E6E6" stroke="#3E3E3E" stroke-width="2" stroke-miterlimit="10" d="M73.148,135.602
				c0.528-7.333,5.553-29.062,5.553-39.386c0-14.617,2.812-25.241,3.909-38.449c2.908,17.831,3.422,26.877,3.056,37.521
				c-0.432,12.515,1.03,28.138,2.156,40.313"/>
			<path fill="#E6E6E6" stroke="#3E3E3E" stroke-width="2" stroke-miterlimit="10" d="M123.658,186.423
				c7.552-21.175,6.039-54.389,7.527-77.198c4.82,14.199,3.877,27.654,4.852,36.587c0.79,7.234,2.966,26.933,2.281,33.119"/>
			<path fill="#E6E6E6" stroke="#3E3E3E" stroke-width="2" stroke-miterlimit="10" d="M174.479,130.064
				c5.684-2.171,3.26-24.922,5.864-41.354c0.864,9.823,4.363,19.9,4.019,29.845"/>
			<path fill="#E6E6E6" stroke="#3E3E3E" stroke-width="2" stroke-miterlimit="10" d="M118.229,229.862
				c61.533,0,111.416-49.882,111.416-111.416c0-19.641-5.101-38.084-14.021-54.105c-1.642,1.558-3.159,3.389-4.679,4.355
				c-3.362,2.146-6.207,2.992-8.217,6.937c-1.851,3.636-3.342,7.498-4.371,11.32c-1.969,7.317-1.568,15.732-4.859,18.68
				c-3.742,3.352-5.698,5.292-6.313,6.477c-0.944,1.82-1.604,3.685-2.822,6.446c-1.072,2.437-3.028,7.831-3.028,7.831
				c-4.657,4.883-12.597,1.713-15.433,8.883c-3.652,9.23-7.49,18.438-12.577,26.989c-1.827,3.073-3.759,7.229-6.729,9.366
				c-3.299,2.371-7.865,1.629-11.099,4.052c-2.957,2.217-3.789,6.207-6.492,8.476c-2.601,2.186-4.5,0.889-7.517,2.182
				c-3.701,1.586-3.485,8.644-3.933,12.669c-0.604,5.44-0.846,10.489-2.669,15.661c-0.866,2.457-4.593,9.188-7.192,14.69
				C111.162,229.677,114.674,229.862,118.229,229.862z"/>
			<path fill="#E6E6E6" stroke="#3E3E3E" stroke-width="2" stroke-miterlimit="10" d="M181.333,126.384
				c-2.138,10.809-6.819,17.735-8.591,28.331"/>
			<path fill="#E6E6E6" stroke="#3E3E3E" stroke-width="2" stroke-miterlimit="10" d="M230.188,118.662
				c-6.963,1.479-11.604,17.479-12.705,23.021c-1.381,6.961-2.16,12.07-7.047,17.713c-3.115,3.598-5.521,8.788-9.664,11.359
				c-4.477,2.78-10.524,1.554-15.469,3.359c-4.466,1.633-5.593,4.562-7.248,8.723c-1.324,3.326-3.916,6.669-7.095,8.886
				c-1.413,0.984-3.711,1.233-4.887,2.257c-1.931,1.68-1.132,3.852-2.021,6.125"/>
			<circle fill="none" stroke="#3E3E3E" stroke-width="2" stroke-miterlimit="10" cx="118.229" cy="118.446" r="111.417"/>
		</g>
	</g>
	<g id="Calque_1_1_" display="inline">
		
			<image overflow="visible" opacity="0.3" enable-background="new    " width="1204" height="1204" xlink:href="../5088DA8B.jpeg"  transform="matrix(0.24 0 0 0.24 139.5 276.8899)">
		</image>
	</g>
	<g id="Icônes" display="inline">
		<g id="Rocket">
			<path fill="#172334" stroke="#D0C5CA" stroke-miterlimit="10" d="M104.592,17.129c-6.478,6.47-50.13,50.118-50.13,50.118
				s-23.387-2.507-30.062,0c-6.683,2.502-30.07,40.089-30.07,40.089s31.869-8.871,50.44-4.705l-31.275,40.214l46.908-26.759
				c9.218,21.09-5.942,51.393-5.942,51.393s38.016-24.223,40.104-30.063c2.088-5.855,0-30.076,0-30.076s45.527-44.689,50.109-50.114
				c4.604-5.427,14.621-47.199,10.026-50.118C150.12,4.183,111.058,10.656,104.592,17.129z"/>
			<path fill="#172334" stroke="#D0C5CA" stroke-miterlimit="10" d="M131.001,32.752c-5.745-6.618-16.613-6.595-24.274,0.063
				c-7.666,6.65-9.219,17.41-3.465,24.03c5.737,6.614,16.617,6.592,24.274-0.065C135.202,50.125,136.755,39.366,131.001,32.752z"/>
		</g>
		<g id="Rocket2">
			<path fill="#CCDED6" stroke="#111B29" stroke-miterlimit="10" d="M120.105,59.311c-7.584,0.158-58.723,1.288-58.723,1.288
				S48.621,44.76,43.157,42.288c-5.468-2.482-40.895,7.141-40.895,7.141s24.336,13.78,33.247,27.732l-41.698,6.479L37.38,95.229
				c-6.33,19.003-32.647,29.003-32.647,29.003s36.746,7.777,41.312,5.342c4.573-2.438,16.997-19.091,16.997-19.091
				s52.867-0.646,58.709-1.296c5.854-0.647,35.539-21.073,34.403-25.722C155.029,78.819,127.688,59.145,120.105,59.311z"/>
			<path fill="#FFFFFF" stroke="#111B29" stroke-miterlimit="10" d="M127.37,85.24c0.257-7.706-6.341-14.313-14.754-14.747
				c-8.406-0.445-15.427,5.437-15.68,13.146c-0.265,7.692,6.349,14.304,14.755,14.741C120.096,98.824,127.123,92.938,127.37,85.24z"
				/>
		</g>
		<g id="Loupe">
			<path fill="none" stroke="#E6E6E6" stroke-miterlimit="10" d="M63.993,17.321c7.755,0,15.154,1.517,22.232,4.545
				c7.072,3.032,13.167,7.103,18.258,12.199c5.11,5.102,9.18,11.189,12.209,18.268c3.029,7.069,4.539,14.479,4.539,22.231
				c0,6.652-1.088,13.029-3.25,19.125c-2.176,6.103-5.271,11.628-9.265,16.6l36.121,36.067c1.229,1.229,1.838,2.732,1.838,4.523
				c0,1.829-0.607,3.345-1.813,4.548c-1.209,1.211-2.719,1.815-4.547,1.815c-1.791,0-3.301-0.61-4.521-1.84l-36.065-36.119
				c-4.979,4-10.512,7.085-16.607,9.264c-6.094,2.167-12.461,3.25-19.129,3.25c-7.745,0-15.163-1.515-22.233-4.544
				c-7.071-3.027-13.156-7.098-18.267-12.198c-5.101-5.104-9.153-11.189-12.19-18.258C8.264,89.723,6.754,82.31,6.754,74.565
				c0-7.754,1.51-15.162,4.549-22.231c3.037-7.075,7.089-13.166,12.19-18.268c5.11-5.099,11.196-9.167,18.267-12.199
				C48.83,18.835,56.248,17.321,63.993,17.321z"/>
			<line fill="none" stroke="#E6E6E6" stroke-miterlimit="10" x1="99.729" y1="119.283" x2="108.713" y2="110.286"/>
		</g>
		<g id="Bonhomme">
			<path fill="none" stroke="#E6E6E6" stroke-miterlimit="10" d="M75.529,16.158c7.294,0,14.017,1.798,20.167,5.391
				c6.16,3.598,11.042,8.471,14.622,14.63c3.604,6.155,5.402,12.883,5.402,20.173v6.7c0,5.58-1.076,10.865-3.234,15.854
				c-2.168,4.985-5.186,9.326-9.06,13.023c10.176,1.608,19.235,3.97,27.159,7.096c7.916,3.126,14.117,6.809,18.597,11.061
				c4.479,4.256,6.723,8.739,6.723,13.458v13.186c0,5.552-1.956,10.286-5.881,14.21c-3.924,3.926-8.664,5.888-14.209,5.888H15.246
				c-5.546,0-10.277-1.962-14.201-5.888c-3.924-3.924-5.891-8.658-5.891-14.21v-13.243c0-4.71,2.252-9.188,6.723-13.447
				c4.487-4.252,10.68-7.941,18.571-11.061c7.907-3.122,16.949-5.471,27.142-7.046c-3.84-3.729-6.84-8.08-9.008-13.051
				c-2.16-4.971-3.244-10.248-3.235-15.828v-6.7c0-7.29,1.798-14.018,5.396-20.172c3.588-6.16,8.462-11.033,14.63-14.631
				c6.151-3.592,12.882-5.391,20.167-5.391L75.529,16.158L75.529,16.158z"/>
			<path fill="none" stroke="#E6E6E6" stroke-miterlimit="10" d="M47.589,91.928c0,0,27.915,23.234,55.838,0"/>
		</g>
		<path id="Message" fill="none" stroke="#E6E6E6" stroke-miterlimit="10" d="M24.054,16.935H125.88
			c5.271,0,9.772,1.855,13.501,5.585c3.721,3.731,5.588,8.23,5.588,13.508v69.995c0,5.271-1.869,9.776-5.588,13.497
			c-3.729,3.727-8.232,5.599-13.501,5.599H74.976l-44.559,31.814v-31.814h-6.363c-5.27,0-9.771-1.872-13.501-5.599
			c-3.729-3.721-5.589-8.228-5.589-13.497V36.028c0-5.275,1.86-9.774,5.589-13.508C14.282,18.791,18.785,16.935,24.054,16.935z"/>
		<g id="Notif">
			<path fill="none" stroke="#E6E6E6" stroke-miterlimit="10" d="M74.963,18.214c1.407,0,4.253,0.878,9.104,2.646
				c4.865,1.771,9.167,4.198,12.919,7.301c3.769,3.104,7.156,6.793,10.161,11.063c3.005,4.277,5.51,8.901,7.505,13.865
				c1.996,4.961,3.554,10.23,4.675,15.813c3.331,16.735,6.877,29.961,10.622,39.687c3.752,9.721,8.658,17.619,14.724,23.688h-51.79
				c0.731,2.079,1.097,4.188,1.097,6.336c0,5.251-1.86,9.73-5.573,13.445c-3.713,3.712-8.189,5.568-13.444,5.568
				c-5.248,0-9.724-1.856-13.437-5.568c-3.713-3.715-5.573-8.194-5.573-13.445c0-2.146,0.366-4.257,1.089-6.336H5.261
				c6.066-6.069,10.98-13.97,14.725-23.688c3.745-9.726,7.283-22.948,10.622-39.687c1.122-5.571,2.68-10.844,4.667-15.813
				c2.004-4.973,4.508-9.588,7.505-13.865c3.013-4.266,6.399-7.958,10.161-11.063c3.76-3.104,8.062-5.537,12.919-7.301
				c4.858-1.761,8.015-2.646,9.112-2.646H74.963z"/>
			<line fill="none" stroke="#E6E6E6" stroke-miterlimit="10" x1="57.042" y1="132.277" x2="92.884" y2="132.277"/>
		</g>
		<path id="EtoilePleine" fill="#D58CBC" stroke="#D58CBC" stroke-miterlimit="10" d="M57.374,70.423l17.63-54.266l17.63,54.266
			H149.7l-46.163,32.045l17.63,53.299l-46.164-33.779l-46.17,33.522l17.63-53.042L0.3,70.423H57.374z"/>
		<g id="Points">
			<circle fill="#999999" cx="23.224" cy="85.962" r="12.99"/>
			<circle fill="#999999" cx="76.784" cy="85.962" r="12.99"/>
			<circle fill="#999999" cx="126.775" cy="85.962" r="12.99"/>
		</g>
		<path id="Validation" fill="none" stroke="#E6E6E6" stroke-linecap="round" stroke-miterlimit="10" d="M125.072,54.281
			l-61.878,61.878c-0.995,0.992-2.214,1.483-3.664,1.483c-1.449,0-2.675-0.492-3.663-1.483l-30.939-30.94"/>
		<path id="Photo" fill="none" stroke="#E6E6E6" stroke-miterlimit="10" d="M52.476,29.664h45.042l11.262,16.89h16.89
			c4.658,0,8.639,1.681,11.939,5.04c3.295,3.354,4.951,7.366,4.951,12.032v61.835c0,4.659-1.654,8.632-4.951,11.896
			c-3.301,3.271-7.281,4.904-11.939,4.904H24.33c-4.666,0-8.646-1.646-11.941-4.949c-3.302-3.295-4.949-7.274-4.949-11.938V63.534
			c0-4.665,1.647-8.659,4.949-11.986c3.295-3.334,7.275-4.994,11.941-4.994h16.89L52.476,29.664z M75,63.444
			c3.813,0,7.457,0.75,10.933,2.242c3.463,1.491,6.455,3.488,8.968,5.997c2.507,2.507,4.511,5.498,6.003,8.977
			c1.485,3.476,2.229,7.119,2.234,10.926c0.007,3.812-0.743,7.45-2.234,10.927c-1.5,3.476-3.502,6.475-6.003,8.981
			c-2.507,2.507-5.499,4.497-8.968,5.996c-3.483,1.49-7.134,2.241-10.933,2.241c-3.813,0-7.45-0.75-10.933-2.241
			c-3.476-1.499-6.468-3.489-8.968-5.996c-2.507-2.509-4.511-5.508-6.003-8.981c-1.499-3.477-2.242-7.114-2.242-10.927
			c0-3.808,0.75-7.45,2.242-10.926c1.492-3.479,3.489-6.47,6.003-8.977c2.507-2.508,5.498-4.505,8.968-5.997
			C67.543,64.193,71.188,63.444,75,63.444z"/>
		<path id="Etoile" fill="none" stroke="#E6E6E6" stroke-miterlimit="10" d="M57.374,70.423l17.63-54.266l17.63,54.266H149.7
			l-46.163,32.045l17.63,53.299l-46.164-33.779l-46.17,33.522l17.63-53.042L0.3,70.423H57.374z"/>
		<g id="Croix">
			
				<line fill="none" stroke="#E6E6E6" stroke-linecap="round" stroke-linejoin="round" stroke-miterlimit="10" x1="25.307" y1="36.269" x2="124.693" y2="135.656"/>
			
				<line fill="none" stroke="#E6E6E6" stroke-linecap="round" stroke-linejoin="round" stroke-miterlimit="10" x1="25.307" y1="135.656" x2="124.693" y2="36.269"/>
		</g>
		<g id="Nouveau">
			<path fill="none" stroke="#E6E6E6" stroke-miterlimit="10" d="M75,16.212c9.474,0,18.515,1.842,27.122,5.521
				c8.601,3.683,16.014,8.637,22.243,14.86c6.229,6.229,11.184,13.643,14.861,22.246c3.678,8.602,5.521,17.643,5.521,27.119
				c0,9.475-1.846,18.516-5.521,27.122c-3.68,8.602-8.633,16.013-14.861,22.243c-6.229,6.229-13.643,11.184-22.243,14.86
				c-8.607,3.68-17.648,5.522-27.122,5.522s-18.515-1.846-27.122-5.522c-8.601-3.679-16.014-8.632-22.243-14.86
				c-6.229-6.229-11.183-13.644-14.861-22.243c-3.679-8.605-5.524-17.646-5.524-27.12c0-9.479,1.845-18.52,5.523-27.119
				c3.678-8.604,8.632-16.017,14.861-22.245c6.229-6.227,13.642-11.181,22.243-14.861C56.485,18.053,65.526,16.212,75,16.212z"/>
			<line fill="none" stroke="#E6E6E6" stroke-linecap="round" stroke-miterlimit="10" x1="75" y1="54.257" x2="75" y2="117.667"/>
			
				<line fill="none" stroke="#E6E6E6" stroke-linecap="round" stroke-miterlimit="10" x1="43.295" y1="85.962" x2="106.705" y2="85.962"/>
		</g>
		<g id="FlechesBas">
			<path fill="none" stroke="#989898" stroke-linecap="round" stroke-linejoin="round" stroke-miterlimit="10" d="M134.316,82.593
				L80.469,136.44c-1.518,1.519-3.351,2.283-5.469,2.283s-3.952-0.767-5.469-2.283L15.684,82.593 M134.316,36.438L80.469,90.285
				c-1.518,1.518-3.351,2.282-5.469,2.282s-3.952-0.767-5.469-2.282L15.684,36.438"/>
		</g>
		<g id="Scintillement">
			
				<line fill="none" stroke="#E6E6E6" stroke-linecap="round" stroke-linejoin="round" stroke-miterlimit="10" x1="34.457" y1="47.059" x2="56.533" y2="69.14"/>
			
				<line fill="none" stroke="#E6E6E6" stroke-linecap="round" stroke-linejoin="round" stroke-miterlimit="10" x1="93.375" y1="105.981" x2="115.436" y2="128.082"/>
			
				<line fill="none" stroke="#E6E6E6" stroke-linecap="round" stroke-linejoin="round" stroke-miterlimit="10" x1="74.935" y1="30.327" x2="74.935" y2="61.556"/>
			
				<line fill="none" stroke="#E6E6E6" stroke-linecap="round" stroke-linejoin="round" stroke-miterlimit="10" x1="93.335" y1="69.178" x2="115.436" y2="47.079"/>
			
				<line fill="none" stroke="#E6E6E6" stroke-linecap="round" stroke-linejoin="round" stroke-miterlimit="10" x1="100.959" y1="87.581" x2="132.188" y2="87.581"/>
			
				<line fill="none" stroke="#E6E6E6" stroke-linecap="round" stroke-linejoin="round" stroke-miterlimit="10" x1="48.91" y1="87.581" x2="17.681" y2="87.581"/>
			
				<line fill="none" stroke="#E6E6E6" stroke-linecap="round" stroke-linejoin="round" stroke-miterlimit="10" x1="56.533" y1="105.981" x2="34.457" y2="128.102"/>
			
				<line fill="none" stroke="#E6E6E6" stroke-linecap="round" stroke-linejoin="round" stroke-miterlimit="10" x1="74.935" y1="113.605" x2="74.935" y2="144.834"/>
		</g>
		<path id="Rouage" fill="none" stroke="#E6E6E6" stroke-miterlimit="10" d="M88.301,16.222l5.511,16.535
			c1.532,0.524,3.38,1.274,5.536,2.251l15.58-7.785l18.814,18.813l-7.79,15.58c0.978,2.153,1.728,4,2.251,5.534l16.535,5.512v26.604
			l-16.535,5.511c-0.523,1.532-1.273,3.382-2.251,5.535l7.79,15.58l-18.814,18.813l-15.58-7.786
			c-2.156,0.979-4.004,1.729-5.536,2.251l-5.511,16.536H61.699l-5.511-16.536c-1.536-0.522-3.38-1.272-5.536-2.251l-15.527,7.786
			L16.311,125.89l7.737-15.58c-0.978-2.153-1.728-4.003-2.248-5.535L5.261,99.262V72.661L21.8,67.151
			c0.521-1.534,1.271-3.381,2.248-5.534l-7.737-15.58l18.814-18.813l15.527,7.785c2.156-0.977,4-1.727,5.536-2.251l5.511-16.535
			H88.301z M75,60.878c6.919,0,12.838,2.449,17.735,7.349c4.897,4.897,7.349,10.813,7.349,17.735c0,6.919-2.45,12.837-7.349,17.735
			c-4.897,4.896-10.816,7.348-17.735,7.348c-6.923,0-12.838-2.449-17.735-7.348c-4.897-4.899-7.349-10.816-7.349-17.735
			c0-6.923,2.45-12.838,7.349-17.735C62.162,63.328,68.077,60.878,75,60.878z"/>
	</g>
	
		<circle display="inline" fill="#E6E6E6" stroke="#41B7E0" stroke-width="2" stroke-linecap="round" stroke-linejoin="round" stroke-miterlimit="10" cx="118.689" cy="117.97" r="111.858"/>
	
		<line display="inline" fill="none" stroke="#41B7E0" stroke-width="2" stroke-linecap="round" stroke-linejoin="round" stroke-miterlimit="10" x1="92.687" y1="117.97" x2="144.689" y2="117.97"/>
	<g display="inline">
		<g>
			
				<circle fill="#E6E6E6" stroke="#41B7E0" stroke-width="2" stroke-linecap="round" stroke-linejoin="round" stroke-miterlimit="10" cx="123.37" cy="71.953" r="33.197"/>
			
				<path fill="#E6E6E6" stroke="#41B7E0" stroke-width="2" stroke-linecap="round" stroke-linejoin="round" stroke-miterlimit="10" d="
				M133.572,53.842c-11.84,1.388-22.728-0.723-32.662-6.329c-3.267,3.003-5.923,6.655-7.781,10.749
				C103.892,60.064,123.063,60.792,133.572,53.842z"/>
			
				<path fill="#E6E6E6" stroke="#41B7E0" stroke-width="2" stroke-linecap="round" stroke-linejoin="round" stroke-miterlimit="10" d="
				M156.199,76.898c0.242-1.613,0.367-3.264,0.367-4.944c0-3.419-0.518-6.718-1.477-9.822c-8.113,6.38-22.932,12.57-42.25,10.372
				C119.77,77.999,141.77,80.36,156.199,76.898z"/>
			
				<path fill="#E6E6E6" stroke="#41B7E0" stroke-width="2" stroke-linecap="round" stroke-linejoin="round" stroke-miterlimit="10" d="
				M92.043,82.945c1.949,5.552,5.328,10.425,9.7,14.184c9.6,0.583,21.317-1.74,28.562-6.169
				C119.279,90.948,102.472,90.253,92.043,82.945z"/>
		</g>
		
			<path fill="#E6E6E6" stroke="#41B7E0" stroke-width="2" stroke-linecap="round" stroke-linejoin="round" stroke-miterlimit="10" d="
			M99.822,36.575c0-3.3-2.998-10.084-5.861-10.084c2.754,0,5.861-5.479,5.861-9.649c0,4.281,3.708,9.649,5.861,9.649
			C103.475,26.491,99.822,33.386,99.822,36.575z"/>
		
			<path fill="#E6E6E6" stroke="#41B7E0" stroke-width="2" stroke-linecap="round" stroke-linejoin="round" stroke-miterlimit="10" d="
			M84.564,45.823c0-2.113-1.92-6.462-3.754-6.462c1.764,0,3.754-3.508,3.754-6.181c0,2.743,2.375,6.181,3.755,6.181
			C86.904,39.361,84.564,43.778,84.564,45.823z"/>
	</g>
	<g display="inline">
		<g>
			
				<circle fill="#E6E6E6" stroke="#41B7E0" stroke-width="2" stroke-linecap="round" stroke-linejoin="round" stroke-miterlimit="10" cx="114.006" cy="165.471" r="33.197"/>
			
				<path fill="#E6E6E6" stroke="#41B7E0" stroke-width="2" stroke-linecap="round" stroke-linejoin="round" stroke-miterlimit="10" d="
				M103.802,183.583c11.844-1.389,22.732,0.723,32.665,6.328c3.268-3.003,5.926-6.655,7.778-10.747
				C133.484,177.361,114.314,176.632,103.802,183.583z"/>
			
				<path fill="#E6E6E6" stroke="#41B7E0" stroke-width="2" stroke-linecap="round" stroke-linejoin="round" stroke-miterlimit="10" d="
				M81.178,160.527c-0.242,1.613-0.368,3.265-0.368,4.944c0,3.418,0.518,6.717,1.479,9.822c8.112-6.38,22.93-12.571,42.251-10.372
				C117.607,159.425,95.608,157.065,81.178,160.527z"/>
			
				<path fill="#E6E6E6" stroke="#41B7E0" stroke-width="2" stroke-linecap="round" stroke-linejoin="round" stroke-miterlimit="10" d="
				M145.332,154.48c-1.947-5.551-5.328-10.424-9.698-14.183c-9.6-0.582-21.317,1.74-28.561,6.169
				C118.099,146.479,134.904,147.171,145.332,154.48z"/>
		</g>
		
			<path fill="#E6E6E6" stroke="#41B7E0" stroke-width="2" stroke-linecap="round" stroke-linejoin="round" stroke-miterlimit="10" d="
			M137.557,200.85c0,3.299,2.996,10.085,5.86,10.085c-2.754,0-5.86,5.477-5.86,9.647c0-4.281-3.709-9.647-5.859-9.647
			C133.902,210.935,137.557,204.038,137.557,200.85z"/>
		
			<path fill="#E6E6E6" stroke="#41B7E0" stroke-width="2" stroke-linecap="round" stroke-linejoin="round" stroke-miterlimit="10" d="
			M152.813,191.604c0,2.112,1.922,6.46,3.756,6.46c-1.762,0-3.756,3.51-3.756,6.184c0-2.744-2.373-6.184-3.754-6.184
			C150.475,198.064,152.813,193.647,152.813,191.604z"/>
	</g>
	
		<path display="inline" fill="#E6E6E6" stroke="#41B7E0" stroke-width="2" stroke-linecap="round" stroke-linejoin="round" stroke-miterlimit="10" d="
		M61.466,164.709c-9.452-12.192-15.079-27.501-15.079-44.123c0.001-19.195,7.505-36.641,19.739-49.558"/>
	
		<path display="inline" fill="#E6E6E6" stroke="#41B7E0" stroke-width="2" stroke-linecap="round" stroke-linejoin="round" stroke-miterlimit="10" d="
		M173.348,73.85c10.729,12.584,17.203,28.903,17.203,46.736c0,19.728-7.925,37.603-20.766,50.619"/>
	
		<path display="inline" fill="#E6E6E6" stroke="#41B7E0" stroke-width="2" stroke-linecap="round" stroke-linejoin="round" stroke-miterlimit="10" d="
		M65.984,117.97c0-14.553,5.899-27.728,15.437-37.266"/>
	
		<path display="inline" fill="#E6E6E6" stroke="#41B7E0" stroke-width="2" stroke-linecap="round" stroke-linejoin="round" stroke-miterlimit="10" d="
		M171.391,117.97c0,13.419-5.015,25.665-13.271,34.971"/>
</g>
<g id="Calque_2_1_" display="none">
	<circle display="inline" fill="#E6E6E6" cx="119.604" cy="117.912" r="112.845"/>
	
		<path display="inline" fill="none" stroke="#41B7E0" stroke-width="2" stroke-linecap="round" stroke-linejoin="round" stroke-miterlimit="10" d="
		M74.927,168.736c-3.418-6.95-8.249-11.548-8.249-11.548c-3.465-3.3-33.655-13.529-36.459-16.994
		c-2.805-3.465-2.02-16.858-2.02-16.858l-21.118,2.684c0.947,13.342,4.208,26.037,9.395,37.697"/>
	
		<path display="inline" fill="#E6E6E6" stroke="#41B7E0" stroke-width="2" stroke-linecap="round" stroke-linejoin="round" stroke-miterlimit="10" d="
		M6.759,117.912c0,3.665,0.189,7.283,0.531,10.858c2.225,1.434,4.752,2.351,7.586,2.351c13.198,0,19.797-19.796,19.797-19.796
		s16.498-7.919,16.498-21.118c0-9.122-9.062-29.897-20.378-41.867C15.753,67.512,6.759,91.654,6.759,117.912z"/>
	<g display="inline">
		
			<path fill="#E6E6E6" stroke="#41B7E0" stroke-width="2" stroke-linecap="round" stroke-linejoin="round" stroke-miterlimit="10" d="
			M182.082,168.736c-3.418-6.95-8.248-11.548-8.248-11.548c-3.465-3.3-33.656-13.529-36.46-16.994
			c-2.806-3.465-2.021-16.858-2.021-16.858l-23.921,3.039c0,0,1.195,12.17-1.115,14.976c-1.88,2.282-19.172,9.485-26.787,14.31
			c0,0-3.851,3.123-4.507,4.226"/>
		<g>
			
				<path fill="#E6E6E6" stroke="#41B7E0" stroke-width="2" stroke-linecap="round" stroke-linejoin="round" stroke-miterlimit="10" d="
				M122.029,39.394c-17.321,0-36.954,39.924-36.954,50.813c0,10.889,17.157,21.118,17.157,21.118s6.599,19.796,19.797,19.796
				c13.199,0,19.798-19.796,19.798-19.796s16.497-7.919,16.497-21.118S139.354,39.394,122.029,39.394z"/>
			
				<path fill="#E6E6E6" stroke="#41B7E0" stroke-width="2" stroke-linecap="round" stroke-linejoin="round" stroke-miterlimit="10" d="
				M115.927,119.243c0,0.182,5.774-3.467,13.033,0.329"/>
			
				<ellipse transform="matrix(-0.6518 -0.7584 0.7584 -0.6518 114.9302 264.3602)" fill="#E6E6E6" stroke="#41B7E0" stroke-width="2" stroke-linecap="round" stroke-linejoin="round" stroke-miterlimit="10" cx="118.152" cy="105.797" rx="0.907" ry="2.228"/>
			
				<ellipse transform="matrix(-0.6521 0.7582 -0.7582 -0.6521 287.2707 79.7709)" fill="#E6E6E6" stroke="#41B7E0" stroke-width="2" stroke-linecap="round" stroke-linejoin="round" stroke-miterlimit="10" cx="125.332" cy="105.801" rx="0.907" ry="2.227"/>
			
				<path fill="#41B7E0" stroke="#41B7E0" stroke-width="2" stroke-linecap="round" stroke-linejoin="round" stroke-miterlimit="10" d="
				M92.005,80.472c18.147,0,21.942,5.775,21.942,12.869C113.947,93.341,92.005,99.776,92.005,80.472z"/>
			
				<path fill="#41B7E0" stroke="#41B7E0" stroke-width="2" stroke-linecap="round" stroke-linejoin="round" stroke-miterlimit="10" d="
				M150.9,80.472c-18.146,0-21.94,5.775-21.94,12.869C128.96,93.341,150.9,99.776,150.9,80.472z"/>
			
				<polygon fill="#E6E6E6" stroke="#41B7E0" stroke-width="2" stroke-linecap="round" stroke-linejoin="round" stroke-miterlimit="10" points="
				126.717,73.544 121.98,82.232 117.247,73.544 			"/>
			
				<polygon fill="#E6E6E6" stroke="#41B7E0" stroke-width="2" stroke-linecap="round" stroke-linejoin="round" stroke-miterlimit="10" points="
				118.928,68.594 121.98,62.768 125.035,68.594 			"/>
			
				<polygon fill="#E6E6E6" stroke="#41B7E0" stroke-width="2" stroke-linecap="round" stroke-linejoin="round" stroke-miterlimit="10" points="
				119.818,57.41 121.98,53.443 124.145,57.41 			"/>
			
				<ellipse transform="matrix(0.5594 -0.8289 0.8289 0.5594 -27.5494 118.6827)" fill="#E6E6E6" cx="97.868" cy="85.257" rx="3.474" ry="1.732"/>
			
				<ellipse transform="matrix(0.5598 -0.8286 0.8286 0.5598 -25.4605 122.7699)" fill="#E6E6E6" cx="102.823" cy="85.349" rx="2.329" ry="1.187"/>
			
				<ellipse transform="matrix(0.5594 -0.8289 0.8289 0.5594 -7.953 155.5467)" fill="#E6E6E6" cx="142.344" cy="85.255" rx="3.474" ry="1.731"/>
			
				<ellipse transform="matrix(0.5598 -0.8286 0.8286 0.5598 -5.8765 159.6392)" fill="#E6E6E6" cx="147.307" cy="85.35" rx="2.328" ry="1.187"/>
		</g>
	</g>
	
		<path display="inline" fill="none" stroke="#41B7E0" stroke-width="2" stroke-linecap="round" stroke-linejoin="round" stroke-miterlimit="10" d="
		M8.772,119.243c0,0.182,5.774-3.467,13.033,0.329"/>
	
		<ellipse transform="matrix(-0.6521 -0.7582 0.7582 -0.6521 -62.0358 183.1313)" display="inline" fill="#FFFFFF" stroke="#41B7E0" stroke-width="2" stroke-linecap="round" stroke-linejoin="round" stroke-miterlimit="10" cx="11.002" cy="105.8" rx="0.907" ry="2.227"/>
	
		<ellipse transform="matrix(-0.6522 0.758 -0.758 -0.6522 110.2276 161.0156)" display="inline" fill="#FFFFFF" stroke="#41B7E0" stroke-width="2" stroke-linecap="round" stroke-linejoin="round" stroke-miterlimit="10" cx="18.178" cy="105.793" rx="0.907" ry="2.228"/>
	
		<path display="inline" fill="#41B7E0" stroke="#41B7E0" stroke-width="2" stroke-linecap="round" stroke-linejoin="round" stroke-miterlimit="10" d="
		M43.747,80.472c-18.147,0-21.942,5.775-21.942,12.869C21.805,93.341,43.747,99.776,43.747,80.472z"/>
	
		<ellipse transform="matrix(0.5595 -0.8288 0.8288 0.5595 -55.1609 66.7239)" display="inline" fill="#E6E6E6" cx="35.191" cy="85.256" rx="3.475" ry="1.731"/>
	
		<ellipse transform="matrix(0.5598 -0.8286 0.8286 0.5598 -53.0441 70.8493)" display="inline" fill="#E6E6E6" cx="40.158" cy="85.347" rx="2.328" ry="1.187"/>
	
		<path display="inline" fill="none" stroke="#41B7E0" stroke-width="2" stroke-linecap="round" stroke-linejoin="round" stroke-miterlimit="10" d="
		M223.039,163.031c5.184-11.865,8.389-24.789,9.189-38.367l-13.451,1.709c0,0,1.195,12.17-1.115,14.976
		c-1.881,2.282-19.172,9.485-26.786,14.31c0,0-3.851,3.123-4.508,4.226"/>
	
		<path display="inline" fill="#E6E6E6" stroke="#41B7E0" stroke-width="2" stroke-linecap="round" stroke-linejoin="round" stroke-miterlimit="10" d="
		M192.422,90.206c0,10.889,17.157,21.118,17.157,21.118s6.601,19.796,19.798,19.796c0.79,0,1.559-0.075,2.303-0.209
		c0.489-4.269,0.77-8.602,0.77-13c0-24.787-8.014-47.693-21.563-66.313C200.514,64.281,192.422,83.219,192.422,90.206z"/>
	
		<ellipse transform="matrix(-0.6518 -0.7584 0.7584 -0.6518 292.222 345.7738)" display="inline" fill="#FFFFFF" stroke="#41B7E0" stroke-width="2" stroke-linecap="round" stroke-linejoin="round" stroke-miterlimit="10" cx="225.493" cy="105.799" rx="0.906" ry="2.227"/>
	
		<path display="inline" fill="#41B7E0" stroke="#41B7E0" stroke-width="2" stroke-linecap="round" stroke-linejoin="round" stroke-miterlimit="10" d="
		M199.35,80.472c18.148,0,21.942,5.775,21.942,12.869C221.292,93.341,199.35,99.776,199.35,80.472z"/>
	
		<ellipse transform="matrix(0.5595 -0.8288 0.8288 0.5595 19.7314 207.6347)" display="inline" fill="#E6E6E6" cx="205.202" cy="85.255" rx="3.475" ry="1.731"/>
	
		<ellipse transform="matrix(0.5596 -0.8287 0.8287 0.5596 21.8188 211.7737)" display="inline" fill="#E6E6E6" cx="210.18" cy="85.356" rx="2.328" ry="1.188"/>
	<g display="inline">
		
			<path fill="#E6E6E6" stroke="#41B7E0" stroke-width="2" stroke-linecap="round" stroke-linejoin="round" stroke-miterlimit="10" d="
			M29.749,186.178c7.614-4.823,24.906-12.027,26.786-14.31c2.31-2.804,1.115-14.975,1.115-14.975l23.922-3.039
			c0,0-0.785,13.396,2.02,16.859c2.805,3.465,32.996,13.692,36.459,16.992c0,0,4.83,4.6,8.249,11.551"/>
		<g>
			
				<path fill="#E6E6E6" stroke="#41B7E0" stroke-width="2" stroke-linecap="round" stroke-linejoin="round" stroke-miterlimit="10" d="
				M68.249,69.915c-17.322,0-36.955,39.924-36.955,50.812c0,10.889,17.157,21.116,17.157,21.116s6.599,19.798,19.797,19.798
				c13.198,0,19.797-19.798,19.797-19.798s16.497-7.917,16.497-21.116C104.543,107.529,85.571,69.915,68.249,69.915z"/>
			
				<path fill="#E6E6E6" stroke="#41B7E0" stroke-width="2" stroke-linecap="round" stroke-linejoin="round" stroke-miterlimit="10" d="
				M62.145,149.762c0,0.184,5.774-3.464,13.033,0.33"/>
			
				<ellipse transform="matrix(-0.6526 -0.7577 0.7577 -0.6526 3.0816 274.0374)" fill="#E6E6E6" stroke="#41B7E0" stroke-width="2" stroke-linecap="round" stroke-linejoin="round" stroke-miterlimit="10" cx="64.365" cy="136.312" rx="0.908" ry="2.228"/>
			
				<ellipse transform="matrix(-0.6526 0.7577 -0.7577 -0.6526 221.5315 171.0591)" fill="#E6E6E6" stroke="#41B7E0" stroke-width="2" stroke-linecap="round" stroke-linejoin="round" stroke-miterlimit="10" cx="71.55" cy="136.316" rx="0.908" ry="2.228"/>
			
				<path fill="#41B7E0" stroke="#41B7E0" stroke-width="2" stroke-linecap="round" stroke-linejoin="round" stroke-miterlimit="10" d="
				M38.223,110.994c18.147,0,21.942,5.772,21.942,12.865C60.165,123.861,38.223,130.295,38.223,110.994z"/>
			
				<path fill="#41B7E0" stroke="#41B7E0" stroke-width="2" stroke-linecap="round" stroke-linejoin="round" stroke-miterlimit="10" d="
				M97.12,110.994c-18.147,0-21.942,5.772-21.942,12.865C75.177,123.861,97.12,130.295,97.12,110.994z"/>
			
				<polygon fill="#E6E6E6" stroke="#41B7E0" stroke-width="2" stroke-linecap="round" stroke-linejoin="round" stroke-miterlimit="10" points="
				72.935,104.065 68.2,112.753 63.464,104.065 			"/>
			
				<polygon fill="#E6E6E6" stroke="#41B7E0" stroke-width="2" stroke-linecap="round" stroke-linejoin="round" stroke-miterlimit="10" points="
				65.146,99.115 68.2,93.288 71.253,99.115 			"/>
			
				<polygon fill="#E6E6E6" stroke="#41B7E0" stroke-width="2" stroke-linecap="round" stroke-linejoin="round" stroke-miterlimit="10" points="
				66.037,87.932 68.2,83.963 70.362,87.932 			"/>
			
				<ellipse transform="matrix(0.5597 -0.8287 0.8287 0.5597 -76.5359 87.5098)" fill="#E6E6E6" cx="44.084" cy="115.78" rx="3.475" ry="1.732"/>
			
				<ellipse transform="matrix(0.56 -0.8285 0.8285 0.56 -74.4171 91.6276)" fill="#E6E6E6" cx="49.051" cy="115.871" rx="2.329" ry="1.187"/>
			
				<ellipse transform="matrix(0.5598 -0.8286 0.8286 0.5598 -56.9492 124.3456)" fill="#E6E6E6" cx="88.561" cy="115.774" rx="3.475" ry="1.732"/>
			
				<ellipse transform="matrix(0.5599 -0.8285 0.8285 0.5599 -54.8421 128.4931)" fill="#E6E6E6" cx="93.541" cy="115.874" rx="2.328" ry="1.187"/>
		</g>
	</g>
	
		<circle display="inline" fill="none" stroke="#41B7E0" stroke-width="2" stroke-linecap="round" stroke-linejoin="round" stroke-miterlimit="10" cx="119.604" cy="117.912" r="112.845"/>
	<g display="inline">
		
			<path fill="#E6E6E6" stroke="#41B7E0" stroke-width="2" stroke-linecap="round" stroke-linejoin="round" stroke-miterlimit="10" d="
			M213.074,181.151c-9.637-3.953-20.915-8.383-22.578-10.436c-2.805-3.464-2.021-16.859-2.021-16.859l-23.92,3.039
			c0,0,1.193,12.171-1.115,14.975c-2.311,2.806-26.562,12.648-30.19,17.158c0,0-8.909,10.23-13.646,41.729"/>
		<g>
			
				<path fill="#E6E6E6" stroke="#41B7E0" stroke-width="2" stroke-linecap="round" stroke-linejoin="round" stroke-miterlimit="10" d="
				M175.152,69.915c-17.322,0-36.955,39.924-36.955,50.812c0,10.889,17.158,21.116,17.158,21.116s6.599,19.798,19.797,19.798
				c13.197,0,19.799-19.798,19.799-19.798s16.496-7.917,16.496-21.116C211.447,107.529,192.477,69.915,175.152,69.915z"/>
			
				<path fill="#E6E6E6" stroke="#41B7E0" stroke-width="2" stroke-linecap="round" stroke-linejoin="round" stroke-miterlimit="10" d="
				M169.049,149.762c0,0.184,5.773-3.464,13.033,0.33"/>
			
				<ellipse transform="matrix(-0.6521 -0.7581 0.7581 -0.6521 179.6046 355.0484)" fill="#E6E6E6" stroke="#41B7E0" stroke-width="2" stroke-linecap="round" stroke-linejoin="round" stroke-miterlimit="10" cx="171.264" cy="136.316" rx="0.907" ry="2.228"/>
			
				<ellipse transform="matrix(-0.6527 0.7576 -0.7576 -0.6527 398.1844 90.1159)" fill="#E6E6E6" stroke="#41B7E0" stroke-width="2" stroke-linecap="round" stroke-linejoin="round" stroke-miterlimit="10" cx="178.438" cy="136.318" rx="0.908" ry="2.228"/>
			
				<path fill="#41B7E0" stroke="#41B7E0" stroke-width="2" stroke-linecap="round" stroke-linejoin="round" stroke-miterlimit="10" d="
				M145.127,110.994c18.146,0,21.941,5.772,21.941,12.865C167.068,123.861,145.127,130.295,145.127,110.994z"/>
			
				<path fill="#41B7E0" stroke="#41B7E0" stroke-width="2" stroke-linecap="round" stroke-linejoin="round" stroke-miterlimit="10" d="
				M204.023,110.994c-18.147,0-21.941,5.772-21.941,12.865C182.082,123.861,204.023,130.295,204.023,110.994z"/>
			
				<polygon fill="#E6E6E6" stroke="#41B7E0" stroke-width="2" stroke-linecap="round" stroke-linejoin="round" stroke-miterlimit="10" points="
				179.84,104.065 175.104,112.753 170.369,104.065 			"/>
			
				<polygon fill="#E6E6E6" stroke="#41B7E0" stroke-width="2" stroke-linecap="round" stroke-linejoin="round" stroke-miterlimit="10" points="
				172.051,99.115 175.104,93.288 178.157,99.115 			"/>
			
				<polygon fill="#E6E6E6" stroke="#41B7E0" stroke-width="2" stroke-linecap="round" stroke-linejoin="round" stroke-miterlimit="10" points="
				172.939,87.932 175.104,83.963 177.268,87.932 			"/>
			
				<ellipse transform="matrix(0.5598 -0.8286 0.8286 0.5598 -29.4725 176.0733)" fill="#E6E6E6" cx="150.978" cy="115.775" rx="3.476" ry="1.732"/>
			
				<ellipse transform="matrix(0.5599 -0.8286 0.8286 0.5599 -27.3666 180.228)" fill="#E6E6E6" cx="155.962" cy="115.874" rx="2.329" ry="1.187"/>
			
				<ellipse transform="matrix(0.5597 -0.8287 0.8287 0.5597 -9.881 212.969)" fill="#E6E6E6" cx="195.461" cy="115.782" rx="3.475" ry="1.732"/>
			
				<ellipse transform="matrix(0.56 -0.8285 0.8285 0.56 -7.7977 217.0648)" fill="#E6E6E6" cx="200.45" cy="115.873" rx="2.329" ry="1.187"/>
		</g>
	</g>
	
		<path display="inline" fill="none" stroke="#41B7E0" stroke-width="2" stroke-linecap="round" stroke-linejoin="round" stroke-miterlimit="10" d="
		M231.593,104.23c-0.262-0.037-0.487-0.021-0.604,0.114c-0.299,0.347,0.089,1.171,0.863,1.922
		C231.781,105.583,231.676,104.912,231.593,104.23z"/>
	
		<path display="inline" fill="none" stroke="#41B7E0" stroke-width="2" stroke-linecap="round" stroke-linejoin="round" stroke-miterlimit="10" d="
		M232.407,119.473c0.007-0.438,0.032-0.875,0.034-1.315c-5.342-1.155-9.17,1.234-9.17,1.086"/>
	
		<path display="inline" fill="none" stroke="#41B7E0" stroke-width="2" stroke-linecap="round" stroke-linejoin="round" stroke-miterlimit="10" d="
		M14.827,82.232l4.735-8.688h-3.735c-0.86,2.008-1.66,4.046-2.405,6.112L14.827,82.232z"/>
	<g display="inline">
		
			<path fill="#E6E6E6" stroke="#41B7E0" stroke-width="2" stroke-linecap="round" stroke-linejoin="round" stroke-miterlimit="10" d="
			M82.602,202.391c0,0,34.811-7.426,30.025-11.22"/>
		
			<path fill="#E6E6E6" stroke="#41B7E0" stroke-width="2" stroke-linecap="round" stroke-linejoin="round" stroke-miterlimit="10" d="
			M60.918,202.391c0,0-13.26-2.828-22.287-5.886"/>
	</g>
	<g display="inline">
		
			<path fill="#E6E6E6" stroke="#41B7E0" stroke-width="2" stroke-linecap="round" stroke-linejoin="round" stroke-miterlimit="10" d="
			M171.193,202.391c0,0-34.812-7.426-30.027-11.22"/>
	</g>
	<g display="inline">
		
			<path fill="#E6E6E6" stroke="#41B7E0" stroke-width="2" stroke-linecap="round" stroke-linejoin="round" stroke-miterlimit="10" d="
			M137.234,174.25c0,0,19.582-4.176,27.354-7.864"/>
		
			<path fill="#E6E6E6" stroke="#41B7E0" stroke-width="2" stroke-linecap="round" stroke-linejoin="round" stroke-miterlimit="10" d="
			M115.553,174.25c0,0-34.811-7.425-30.026-11.219"/>
	</g>
	<g display="inline">
		
			<path fill="#E6E6E6" stroke="#41B7E0" stroke-width="2" stroke-linecap="round" stroke-linejoin="round" stroke-miterlimit="10" d="
			M218.376,172.499c-9.944-2.432-25.784-6.827-22.456-9.468"/>
	</g>
	<g display="inline">
		
			<path fill="#FFFFFF" stroke="#41B7E0" stroke-width="2" stroke-linecap="round" stroke-linejoin="round" stroke-miterlimit="10" d="
			M32.646,174.25c0,0,16.417-3.5,25.153-6.924"/>
	</g>
	
		<path display="inline" fill="#FFFFFF" stroke="#41B7E0" stroke-width="2" stroke-linecap="round" stroke-linejoin="round" stroke-miterlimit="10" d="
		M71.548,209.156c0,0,0.509,8.509-0.295,10.742"/>
	
		<path display="inline" fill="#FFFFFF" stroke="#41B7E0" stroke-width="2" stroke-linecap="round" stroke-linejoin="round" stroke-miterlimit="10" d="
		M127.121,181.879c0,0,0.298,12.167,1.179,15.98"/>
	
		<path display="inline" fill="#FFFFFF" stroke="#41B7E0" stroke-width="2" stroke-linecap="round" stroke-linejoin="round" stroke-miterlimit="10" d="
		M178.452,210.035c0,0-0.591,2.777-0.295,4.358"/>
</g>
<g id="Calque_3_1_">
	
		<circle fill="#E6E6E6" stroke="#41B7E0" stroke-width="2" stroke-linecap="round" stroke-linejoin="round" stroke-miterlimit="10" cx="119.766" cy="118.891" r="112.536"/>
	
		<rect x="88.286" y="199.135" fill="#E6E6E6" stroke="#41B7E0" stroke-width="2" stroke-linecap="round" stroke-linejoin="round" stroke-miterlimit="10" width="62.519" height="12.942"/>
	
		<rect x="91.686" y="73.218" fill="#E6E6E6" stroke="#41B7E0" stroke-width="2" stroke-linecap="round" stroke-linejoin="round" stroke-miterlimit="10" width="55.061" height="27.859"/>
	
		<ellipse fill="#E6E6E6" stroke="#41B7E0" stroke-width="2" stroke-linecap="round" stroke-linejoin="round" stroke-miterlimit="10" cx="182.988" cy="157.016" rx="9.044" ry="7.46"/>
	
		<ellipse fill="#E6E6E6" stroke="#41B7E0" stroke-width="2" stroke-linecap="round" stroke-linejoin="round" stroke-miterlimit="10" cx="177.273" cy="140.893" rx="6.49" ry="5.156"/>
	<g>
		
			<polyline fill="#E6E6E6" stroke="#41B7E0" stroke-width="2" stroke-linecap="round" stroke-linejoin="round" stroke-miterlimit="10" points="
			88.286,199.135 95.195,178.075 119.545,178.075 		"/>
		
			<polyline fill="#E6E6E6" stroke="#41B7E0" stroke-width="2" stroke-linecap="round" stroke-linejoin="round" stroke-miterlimit="10" points="
			95.195,178.075 84.447,172.153 20.606,172.153 		"/>
		
			<polyline fill="#E6E6E6" stroke="#41B7E0" stroke-width="2" stroke-linecap="round" stroke-linejoin="round" stroke-miterlimit="10" points="
			11.778,150.656 30.92,128.938 119.545,128.938 		"/>
		
			<line fill="none" stroke="#41B7E0" stroke-width="2" stroke-linecap="round" stroke-linejoin="round" stroke-miterlimit="10" x1="30.92" y1="128.938" x2="19.953" y2="66.862"/>
		
			<line fill="none" stroke="#41B7E0" stroke-width="2" stroke-linecap="round" stroke-linejoin="round" stroke-miterlimit="10" x1="27.894" y1="132.372" x2="16.661" y2="73.841"/>
		
			<line fill="none" stroke="#41B7E0" stroke-width="2" stroke-linecap="round" stroke-linejoin="round" stroke-miterlimit="10" x1="25.995" y1="56.679" x2="70.845" y2="65.54"/>
		
			<line fill="none" stroke="#41B7E0" stroke-width="2" stroke-linecap="round" stroke-linejoin="round" stroke-miterlimit="10" x1="32.285" y1="128.938" x2="25.995" y2="56.679"/>
		
			<polyline fill="#E6E6E6" stroke="#41B7E0" stroke-width="2" stroke-linecap="round" stroke-linejoin="round" stroke-miterlimit="10" points="
			41.415,38.119 70.845,65.54 119.545,65.321 		"/>
		
			<line fill="none" stroke="#41B7E0" stroke-width="2" stroke-linecap="round" stroke-linejoin="round" stroke-miterlimit="10" x1="70.845" y1="65.54" x2="99.363" y2="128.938"/>
		
			<path fill="#E6E6E6" stroke="#41B7E0" stroke-width="2" stroke-linecap="round" stroke-linejoin="round" stroke-miterlimit="10" d="
			M61.818,166.449c0,1.21-0.983,2.192-2.195,2.192l0,0c-1.212,0-2.196-0.982-2.196-2.192v-17.549c0-1.213,0.983-2.194,2.196-2.194
			l0,0c1.212,0,2.195,0.981,2.195,2.194V166.449z"/>
		
			<rect x="54.1" y="161.842" fill="#E6E6E6" stroke="#41B7E0" stroke-width="2" stroke-linecap="round" stroke-linejoin="round" stroke-miterlimit="10" width="11.047" height="2.634"/>
		
			<polyline fill="#E6E6E6" stroke="#41B7E0" stroke-width="2" stroke-linecap="round" stroke-linejoin="round" stroke-miterlimit="10" points="
			91.686,65.54 77.646,38.119 121.081,38.119 		"/>
		
			<ellipse transform="matrix(0.5361 -0.8442 0.8442 0.5361 -8.9582 63.5068)" fill="#E6E6E6" stroke="#41B7E0" stroke-width="2" stroke-linecap="round" stroke-linejoin="round" stroke-miterlimit="10" cx="53.299" cy="39.904" rx="2.412" ry="2.705"/>
		
			<ellipse transform="matrix(0.5359 -0.8443 0.8443 0.5359 -12.3941 76.1194)" fill="#E6E6E6" stroke="#41B7E0" stroke-width="2" stroke-linecap="round" stroke-linejoin="round" stroke-miterlimit="10" cx="63.037" cy="49.333" rx="2.411" ry="2.705"/>
		
			<ellipse transform="matrix(0.5359 -0.8443 0.8443 0.5359 -16.3768 88.5666)" fill="#E6E6E6" stroke="#41B7E0" stroke-width="2" stroke-linecap="round" stroke-linejoin="round" stroke-miterlimit="10" cx="72.371" cy="59.179" rx="2.412" ry="2.705"/>
		
			<line fill="none" stroke="#41B7E0" stroke-width="2" stroke-linecap="round" stroke-linejoin="round" stroke-miterlimit="10" x1="88.286" y1="212.077" x2="77.445" y2="223.196"/>
		
			<path fill="#E6E6E6" stroke="#41B7E0" stroke-width="2" stroke-linecap="round" stroke-linejoin="round" stroke-miterlimit="10" d="
			M52.165,208.859c4.699,3.536,9.688,6.699,14.917,9.477v-53.858H52.165V208.859z"/>
	</g>
	<g>
		
			<polyline fill="none" stroke="#41B7E0" stroke-width="2" stroke-linecap="round" stroke-linejoin="round" stroke-miterlimit="10" points="
			150.805,199.135 143.895,178.075 119.545,178.075 		"/>
		
			<polyline fill="none" stroke="#41B7E0" stroke-width="2" stroke-linecap="round" stroke-linejoin="round" stroke-miterlimit="10" points="
			143.895,178.075 154.645,172.153 218.484,172.153 		"/>
		
			<polyline fill="none" stroke="#41B7E0" stroke-width="2" stroke-linecap="round" stroke-linejoin="round" stroke-miterlimit="10" points="
			227.313,150.656 208.17,128.938 119.545,128.938 		"/>
		
			<line fill="none" stroke="#41B7E0" stroke-width="2" stroke-linecap="round" stroke-linejoin="round" stroke-miterlimit="10" x1="208.17" y1="128.938" x2="219.137" y2="66.862"/>
		
			<line fill="none" stroke="#41B7E0" stroke-width="2" stroke-linecap="round" stroke-linejoin="round" stroke-miterlimit="10" x1="211.195" y1="132.372" x2="222.43" y2="73.841"/>
		
			<line fill="none" stroke="#41B7E0" stroke-width="2" stroke-linecap="round" stroke-linejoin="round" stroke-miterlimit="10" x1="213.096" y1="56.679" x2="168.245" y2="65.54"/>
		
			<line fill="none" stroke="#41B7E0" stroke-width="2" stroke-linecap="round" stroke-linejoin="round" stroke-miterlimit="10" x1="206.807" y1="128.938" x2="213.096" y2="56.679"/>
		
			<polyline fill="none" stroke="#41B7E0" stroke-width="2" stroke-linecap="round" stroke-linejoin="round" stroke-miterlimit="10" points="
			197.678,38.119 168.245,65.54 119.545,65.321 		"/>
		
			<line fill="none" stroke="#41B7E0" stroke-width="2" stroke-linecap="round" stroke-linejoin="round" stroke-miterlimit="10" x1="168.245" y1="65.54" x2="139.727" y2="128.938"/>
		
			<path fill="#E6E6E6" stroke="#41B7E0" stroke-width="2" stroke-linecap="round" stroke-linejoin="round" stroke-miterlimit="10" d="
			M177.271,166.449c0,1.21,0.982,2.192,2.195,2.192l0,0c1.213,0,2.193-0.982,2.193-2.192v-17.549c0-1.213-0.98-2.194-2.193-2.194
			l0,0c-1.213,0-2.195,0.981-2.195,2.194V166.449z"/>
		
			<rect x="173.943" y="161.842" fill="#E6E6E6" stroke="#41B7E0" stroke-width="2" stroke-linecap="round" stroke-linejoin="round" stroke-miterlimit="10" width="11.047" height="2.634"/>
		
			<polyline fill="none" stroke="#41B7E0" stroke-width="2" stroke-linecap="round" stroke-linejoin="round" stroke-miterlimit="10" points="
			147.404,65.54 161.443,38.119 119.874,38.119 		"/>
		
			<ellipse transform="matrix(0.536 0.8442 -0.8442 0.536 119.888 -138.3311)" fill="none" stroke="#41B7E0" stroke-width="2" stroke-linecap="round" stroke-linejoin="round" stroke-miterlimit="10" cx="185.781" cy="39.894" rx="2.412" ry="2.705"/>
		
			<ellipse transform="matrix(0.5362 0.8441 -0.8441 0.5362 123.2864 -125.7202)" fill="none" stroke="#41B7E0" stroke-width="2" stroke-linecap="round" stroke-linejoin="round" stroke-miterlimit="10" cx="176.046" cy="49.328" rx="2.412" ry="2.704"/>
		
			<ellipse transform="matrix(0.5358 0.8443 -0.8443 0.5358 127.3577 -113.2884)" fill="none" stroke="#41B7E0" stroke-width="2" stroke-linecap="round" stroke-linejoin="round" stroke-miterlimit="10" cx="166.714" cy="59.187" rx="2.412" ry="2.705"/>
		
			<line fill="none" stroke="#41B7E0" stroke-width="2" stroke-linecap="round" stroke-linejoin="round" stroke-miterlimit="10" x1="150.805" y1="212.077" x2="161.646" y2="223.196"/>
		
			<path fill="#E6E6E6" stroke="#41B7E0" stroke-width="2" stroke-linecap="round" stroke-linejoin="round" stroke-miterlimit="10" d="
			M172.008,218.561c5.227-2.745,10.219-5.868,14.92-9.368v-44.717h-14.92V218.561z"/>
	</g>
	
		<polygon fill="#E6E6E6" stroke="#41B7E0" stroke-width="2" stroke-linecap="round" stroke-linejoin="round" stroke-miterlimit="10" points="
		168.684,161.842 69.75,161.842 75.014,136.615 163.42,136.615 	"/>
	
		<line fill="none" stroke="#41B7E0" stroke-width="2" stroke-linecap="round" stroke-linejoin="round" stroke-miterlimit="10" x1="77.445" y1="143.196" x2="132.286" y2="143.196"/>
	
		<line fill="none" stroke="#41B7E0" stroke-width="2" stroke-linecap="round" stroke-linejoin="round" stroke-miterlimit="10" x1="76.348" y1="148.68" x2="118.119" y2="148.68"/>
	
		<line fill="none" stroke="#41B7E0" stroke-width="2" stroke-linecap="round" stroke-linejoin="round" stroke-miterlimit="10" x1="74.999" y1="154.164" x2="130.042" y2="154.164"/>
	
		<line fill="none" stroke="#41B7E0" stroke-width="2" stroke-linecap="round" stroke-linejoin="round" stroke-miterlimit="10" x1="96.293" y1="78.263" x2="124.592" y2="78.263"/>
	
		<line fill="none" stroke="#41B7E0" stroke-width="2" stroke-linecap="round" stroke-linejoin="round" stroke-miterlimit="10" x1="96.293" y1="83.675" x2="116.255" y2="83.675"/>
	
		<line fill="none" stroke="#41B7E0" stroke-width="2" stroke-linecap="round" stroke-linejoin="round" stroke-miterlimit="10" x1="96.293" y1="89.085" x2="132.488" y2="89.085"/>
	
		<line fill="none" stroke="#41B7E0" stroke-width="2" stroke-linecap="round" stroke-linejoin="round" stroke-miterlimit="10" x1="96.293" y1="94.496" x2="122.836" y2="94.496"/>
	
		<line fill="none" stroke="#41B7E0" stroke-width="2" stroke-linecap="round" stroke-linejoin="round" stroke-miterlimit="10" x1="88.286" y1="44.7" x2="126.126" y2="44.7"/>
	
		<line fill="none" stroke="#41B7E0" stroke-width="2" stroke-linecap="round" stroke-linejoin="round" stroke-miterlimit="10" x1="91.686" y1="50.691" x2="121.081" y2="50.691"/>
	
		<line fill="none" stroke="#41B7E0" stroke-width="2" stroke-linecap="round" stroke-linejoin="round" stroke-miterlimit="10" x1="95.195" y1="56.679" x2="116.255" y2="56.679"/>
	
		<ellipse fill="#E6E6E6" stroke="#41B7E0" stroke-width="2" stroke-linecap="round" stroke-linejoin="round" stroke-miterlimit="10" cx="198.613" cy="140.893" rx="6.58" ry="5.156"/>
	
		<ellipse fill="#E6E6E6" stroke="#41B7E0" stroke-width="2" stroke-linecap="round" stroke-linejoin="round" stroke-miterlimit="10" cx="206.805" cy="157.016" rx="9.043" ry="7.46"/>
	
		<polygon fill="#E6E6E6" stroke="#41B7E0" stroke-width="2" stroke-linecap="round" stroke-linejoin="round" stroke-miterlimit="10" points="
		50.884,150.656 29.141,150.656 37.502,138.589 56.368,138.589 	"/>
	
		<polygon fill="#E6E6E6" stroke="#41B7E0" stroke-width="2" stroke-linecap="round" stroke-linejoin="round" stroke-miterlimit="10" points="
		41.415,164.476 25.995,164.476 30.92,157.016 46.058,157.016 	"/>
	
		<line fill="none" stroke="#41B7E0" stroke-width="2" stroke-linecap="round" stroke-linejoin="round" stroke-miterlimit="10" x1="98.519" y1="182.682" x2="141.012" y2="182.682"/>
	
		<line fill="none" stroke="#41B7E0" stroke-width="2" stroke-linecap="round" stroke-linejoin="round" stroke-miterlimit="10" x1="97.582" y1="188.114" x2="141.949" y2="188.114"/>
	
		<line fill="none" stroke="#41B7E0" stroke-width="2" stroke-linecap="round" stroke-linejoin="round" stroke-miterlimit="10" x1="94.976" y1="193.542" x2="144.553" y2="193.542"/>
</g>
</svg>
