<?xml version="1.0" encoding="utf-8"?>
<!-- Generator: Adobe Illustrator 16.0.0, SVG Export Plug-In . SVG Version: 6.00 Build 0)  -->
<!DOCTYPE svg PUBLIC "-//W3C//DTD SVG 1.1//EN" "http://www.w3.org/Graphics/SVG/1.1/DTD/svg11.dtd">
<svg version="1.1" xmlns="http://www.w3.org/2000/svg" xmlns:xlink="http://www.w3.org/1999/xlink" x="0px" y="0px" width="570px"
	 height="398px" viewBox="0 0 570 398" enable-background="new 0 0 570 398" xml:space="preserve">
<g id="Calque_1">
	<path fill-rule="evenodd" clip-rule="evenodd" fill="#1C424E" d="M77.48,157.326c2.708,0.125,13.366,0.25,19.417-0.083
		c15.167-0.833,17.167-1.083,34.398-3.182c17.791-2.513,35.45-5.953,53.208-8.726c16.815-2.624,27.26,7.612,23.808,24.201
		c-2.462,11.832-8.522,40.55-11.912,52.192c-1.332,4.575-3.595,12.822-3.739,13.797c-0.144,0.977,0.615,1.59,1.446,1.268
		c0.832-0.325,8.618-6.22,12.677-9.628c33.589-28.181,66.811-56.811,100.778-84.528c20.125-16.419,41.697-30.964,66.167-40.473
		c15.262-5.93,29.647-8.949,47.084-4.035c13.217,3.724,18.618,14.681,10.54,27.705c-4.335,6.989-10.646,13.29-17.32,18.19
		c-18.708,13.732-40.257,21.843-62.146,29.025c-0.761,0.25-2.008,0.621-3.564,1.258c1.909,0.644,3.793,1.325,5.065,1.81
		c17.943,6.825,23.191,25.307,11.507,40.59c-9.596,12.554-22.631,20.583-36.809,26.595c-11.764,4.987-27.392,10.037-42.293,14.46
		c13.159,10.42,26.229,21.283,38.959,30.467c7.91,5.707,16.545,11.472,25.303,15.843c18.01,8.992,36.374,7.45,54.54-1.097
		c2.287-1.075,6.946-3.136,7.692-1.374c0.747,1.764-1.667,5.04-12.479,10.101c-21.157,8.393-41.493,5.011-60.158-6.605
		c-14.771-9.195-28.502-20.078-42.567-30.388c-5.221-3.828-10.037-8.223-15.189-12.134c-0.942-0.717-3.063-2.29-3.146-2.289
		c-0.186,0.003-2.583,0.466-4.146,0.693c-7.563,1.105-15.144,2.465-22.755,2.832c-4.681,0.224-9.708-0.32-14.132-2.237
		c-5.325-2.231-8.794-7.417-8.298-12.85c0.516-5.639,4.487-9.945,10.298-11.436c6.958-1.783,13.69-0.586,19.997,2.158
		c8.385,3.65,19.483,13.728,20.267,13.545c22.148-5.207,42.336-13.614,57.891-26.614c6.77-5.654,11.826-12.558,15.091-20.768
		c5.036-12.663,1.081-21.826-11.788-26.46c-3.872-1.394-7.18-2.317-11.046-2.934c-1.704-0.271-4.256-0.526-6.162-0.783
		c-0.924-0.206-1.915-1.169,0.698-2.129c1.921-0.531,3.68-0.723,5.951-1.167c20.565-4.023,39.675-11.374,56.472-24.021
		c7.968-6,15.497-12.604,19.07-22.457c3.885-10.717-0.697-18.183-12.11-19.273c-13.218-1.261-24.84,3.939-36.111,9.782
		c-23.04,11.945-43.139,28.05-62.856,44.743c-27.155,22.991-54.566,45.686-81.979,68.37c-4.981,4.123-10.434,7.675-15.812,11.297
		c-5.92,3.986-9.607,1.898-9.652-5.235c0.101-5.032,1.145-10.265,1.658-15.327c0.952-9.403,3.228-36.161,2.938-45.583
		c-0.234-11.919-8.31-18.278-18.412-19.197c-6.563-0.597-18.599,0.085-29.087,1.687c-22.08,3.656-27.33,3.406-40.664,4.49
		c-8.25,0.25-16.797,0.598-21.5,0.625c-7.25,0.042-9.25-1-9.125-2.583C73.55,158.037,74.772,157.201,77.48,157.326z
		 M273.057,254.812c-4.558-3.629-13.313-9.652-20.709-9.115c-2.129,0.155-5.719,0.994-6.142,3.848
		c-0.311,2.101,2.423,4.368,4.274,5.375C256.554,257.953,268.305,255.994,273.057,254.812z"/>
	<path display="none" fill-rule="evenodd" clip-rule="evenodd" d="M263.336,68.002c34.801,0,66.306,14.108,89.108,36.917
		c1.559,1.416,7.559-1.709,6.335-3.055c-24.126-24.986-57.967-40.53-95.443-40.53c-63.363,0-116.343,44.425-129.513,103.824
		c-0.32,1.801,6.305,1.051,7.094-1.062C154.342,108.947,204.054,68.002,263.336,68.002z"/>
	<path fill-rule="evenodd" clip-rule="evenodd" d="M392.438,163.424c-1.061-2.589-6.686,0.911-6.189,2.85
		c2.006,8.924,3.087,18.198,3.087,27.728c0,39.778-18.438,75.245-47.229,98.336c-1.399,1.114-0.572,2.53,0.896,3.497
		c1.328,0.875,3.176,1.396,4.467,0.736c29.628-24.33,48.533-61.24,48.533-102.57C396.002,183.475,394.756,173.242,392.438,163.424z"
		/>
	<path display="none" fill-rule="evenodd" clip-rule="evenodd" fill="#1C424E" d="M327.416,302.502
		c-18.775,11.113-40.68,17.499-64.08,17.499c-69.587,0-126-56.411-126-125.999c0-4.667,0.262-9.272,0.756-13.808
		c0.017-0.617-1.813-1.259-3.507-1.109c-1.694,0.149-3.251,1.089-3.294,2.053c-0.407,4.233-0.623,8.523-0.623,12.863
		c0,73.271,59.397,132.667,132.667,132.667c25.799,0,49.873-7.372,70.245-20.113C334.377,305.335,329.377,301.335,327.416,302.502z"
		/>
	<path fill-rule="evenodd" clip-rule="evenodd" fill="#1C424E" d="M327.416,302.502c-18.775,11.113-40.68,17.636-64.08,17.499
		c-71.083-0.416-141.083-62.666-123.16-155.223c0.017-0.617-1.813-1.259-3.507-1.109c-1.694,0.149-3.251,1.089-3.294,2.053
		c-16.873,96.864,56.691,160.947,129.961,160.947c25.799,0,49.873-7.372,70.245-20.113
		C334.377,305.335,329.377,301.335,327.416,302.502z"/>
	<path fill-rule="evenodd" clip-rule="evenodd" d="M263.336,68.002c34.801,0,66.306,14.108,89.108,36.917
		c1.559,1.416,7.559-1.709,6.335-3.055c-24.126-24.986-57.967-40.53-95.443-40.53c-63.363,0-106.833,41.25-124.177,85.562
		c-0.906,2.688,5.594,2.938,7.094-1.062C163.252,107.335,204.054,68.002,263.336,68.002z"/>
</g>
<g id="Calque_2" display="none">
	<path display="inline" fill="none" stroke="#B92228" stroke-width="2" stroke-miterlimit="10" d="M75.336,158.668
		c86.262,4.758,110.261-26.74,121.667-1.833c6.275,13.703,3.512,55.559,9,57.5c10.833,3.833,155.869-135.414,210-114.5
		c44,17-45.666,69.333-87.333,76.167c92.333,8.833-10.001,78.833-51.334,81.333c-13.34,0.807-43.389,7.741-41.333-9
		c3.5-28.5,55.5,22,87,42.5c29.251,19.036,51.334,32,85.667,12.5"/>
	<path display="inline" fill="none" stroke="#B92228" stroke-width="2" stroke-miterlimit="10" d="M327.564,306.434
		c-18.81,10.755-40.593,16.901-63.812,16.901c-71.106,0-128.75-57.644-128.75-128.75c0-9.655,1.063-19.063,3.078-28.111"/>
	<path fill="none" stroke="#B92228" stroke-width="2" stroke-miterlimit="10" d="M389.709,167.792
		c1.83,8.643,2.793,17.605,2.793,26.793c0,39.255-17.568,74.406-45.271,98.021"/>
	<path fill="none" stroke="#B92228" stroke-width="2" stroke-miterlimit="10" d="M144.642,145.615
		c19.269-46.819,65.34-79.78,119.11-79.78c34.789,0,66.355,13.798,89.525,36.221"/>
</g>
<g id="Calque_2_-_copie" display="none">
	<path display="inline" fill="none" stroke="#B92228" stroke-width="2" stroke-miterlimit="10" d="M75.336,158.668
		c86.262,4.758,110.261-26.74,121.667-1.833c6.275,13.703,3.512,55.559,9,57.5c10.833,3.833,155.869-135.414,210-114.5
		c44,17-45.666,69.333-87.333,76.167c92.333,8.833-10.001,78.833-51.334,81.333c-13.34,0.807-43.389,7.741-41.333-9
		c3.5-28.5,55.5,22,87,42.5c29.251,19.036,51.334,32,85.667,12.5"/>
	<path display="inline" fill="none" stroke="#B92228" stroke-width="2" stroke-miterlimit="10" d="M89.336,159.334
		c0,0,36.667,2.667,44,11.333s5.333,17.011,5.333,26.667c0,71.106,53.977,126.001,125.083,126.001c23.219,0,40.144-2.304,51.75-4.5
		c18.5-3.5,39.5-9.5,39.5-9.5"/>
	<path fill="none" stroke="#B92228" stroke-width="2" stroke-miterlimit="10" d="M389.709,167.792
		c1.83,8.643,2.793,17.605,2.793,26.793c0,39.255-17.568,74.406-45.271,98.021"/>
	<path fill="none" stroke="#B92228" stroke-width="2" stroke-miterlimit="10" d="M144.642,145.615
		c19.269-46.819,65.34-79.78,119.11-79.78c34.789,0,66.355,13.798,89.525,36.221"/>
</g>
<g id="Calque_2_-_copie_2" display="none">
	<path fill="none" stroke="#B92228" stroke-width="2" stroke-miterlimit="10" d="M389.709,167.792
		c1.83,8.643,2.793,17.605,2.793,26.793c0,39.255-17.568,74.406-45.271,98.021"/>
	<path fill="none" stroke="#B92228" stroke-width="2" stroke-miterlimit="10" d="M144.642,145.615
		c19.269-46.819,65.34-79.78,119.11-79.78c34.789,0,66.355,13.798,89.525,36.221"/>
	<g display="inline">
		<path fill="#1C424E" stroke="#1C424E" stroke-width="2" stroke-miterlimit="10" d="M389.004,311.389
			c6.186-1.313,12.854-3.786,19.665-8.054C401.806,307.374,395.292,309.973,389.004,311.389z"/>
		<path fill="#1C424E" stroke="#1C424E" stroke-width="2" stroke-miterlimit="10" d="M356.181,308.729
			c1.633,0.7,7.19,2.858,15.109,3.636C366.202,311.8,361.189,310.541,356.181,308.729z"/>
		<path fill="#1C424E" stroke="#1C424E" stroke-width="2" stroke-miterlimit="10" d="M355.669,308.502c0,0-0.022,0.007-0.058,0.019
			c0.189,0.07,0.379,0.14,0.569,0.209C355.855,308.589,355.669,308.502,355.669,308.502z"/>
		<path fill="#1C424E" stroke="#1C424E" stroke-width="2" stroke-miterlimit="10" d="M389.004,311.389
			c-6.597,1.4-12.636,1.476-17.714,0.977C377.057,313.007,382.925,312.758,389.004,311.389z"/>
		<path fill="#1C424E" stroke="#1C424E" stroke-width="2" stroke-miterlimit="10" d="M79.998,158.89l-4.662-0.222
			C76.913,158.755,78.462,158.827,79.998,158.89z"/>
		<path fill="#1C424E" stroke="#1C424E" stroke-width="2" stroke-miterlimit="10" d="M416.002,99.835
			c-54.131-20.914-199.167,118.333-210,114.5c-5.488-1.941-2.725-43.797-9-57.5c-11.197-24.451-34.538,5.456-117.005,2.055
			l9.338,0.444c0,0,36.667,2.667,44,11.333s5.333,17.011,5.333,26.667c0,71.106,53.977,126.001,125.083,126.001
			c23.219,0,40.144-2.304,51.75-4.5c17.967-3.399,38.915-9.94,40.109-10.314c-10.626-3.932-21.253-10.295-32.609-17.686
			c-13.189-8.584-29.974-22.426-45.286-33.527c41.574-2.9,143.006-72.5,50.953-81.306
			C370.336,169.168,460.002,116.835,416.002,99.835z M277.752,257.335c-13.34,0.807-43.806,7.741-41.75-9
			c2.007-16.341,19.958-6.711,40.847,8.345L277.752,257.335z"/>
	</g>
</g>
<g id="Calque_5" display="none">
	<circle display="inline" fill="none" stroke="#102E22" stroke-miterlimit="10" cx="246.502" cy="215.835" r="78"/>
	<circle display="inline" fill="none" stroke="#102E22" stroke-miterlimit="10" cx="246.502" cy="215.835" r="109"/>
	<rect x="18.002" y="47.335" display="inline" fill="none" width="153" height="47"/>
	<text transform="matrix(1 0 0 1 18.0024 55.855)" display="inline" font-family="'Amarillo'" font-size="12">Vanessa</text>
</g>
</svg>
