<?xml version="1.0" encoding="utf-8"?>
<!-- Generator: Adobe Illustrator 16.0.0, SVG Export Plug-In . SVG Version: 6.00 Build 0)  -->
<!DOCTYPE svg PUBLIC "-//W3C//DTD SVG 1.1//EN" "http://www.w3.org/Graphics/SVG/1.1/DTD/svg11.dtd">
<svg version="1.1" id="Calque_1" xmlns="http://www.w3.org/2000/svg" xmlns:xlink="http://www.w3.org/1999/xlink" x="0px" y="0px"
	 width="36px" height="32px" viewBox="0 0 36 32" enable-background="new 0 0 36 32" xml:space="preserve">
<path fill="#69221E" d="M34,4h-2V2c0-1.1-0.9-2-2-2H2C0.9,0,0,0.9,0,2v24c0,1.1,0.9,2,2,2h2v2c0,1.1,0.9,2,2,2h28c1.1,0,2-0.9,2-2V6
	C36,4.9,35.1,4,34,4z M4,6v20H2.004C2.003,25.999,2.001,25.998,2,25.996V2.003C2.001,2.002,2.002,2,2.004,1.999h27.993
	C29.998,2,30,2.001,30.001,2.003v1.996h-24C4.901,3.999,4.001,4.899,4,6L4,6L4,6z M34,29.996c-0.001,0.001-0.002,0.003-0.004,0.004
	H6.003C6.002,29.999,6,29.998,5.999,29.996V6.003C6,6.002,6.001,6,6.003,5.999h27.993C33.997,6,33.999,6.001,34,6.003V29.996z"/>
<path fill="#69221E" d="M30,11c0,1.657-1.343,3-3,3s-3-1.343-3-3s1.343-3,3-3S30,9.343,30,11z"/>
<path fill="#69221E" d="M32,28H8v-4l7-12l8,10h2l7-6V28z"/>
</svg>
