<?xml version="1.0" encoding="utf-8"?>
<!-- Generator: Adobe Illustrator 16.0.0, SVG Export Plug-In . SVG Version: 6.00 Build 0)  -->
<!DOCTYPE svg PUBLIC "-//W3C//DTD SVG 1.1//EN" "http://www.w3.org/Graphics/SVG/1.1/DTD/svg11.dtd">
<svg version="1.1" id="Calque_1" xmlns="http://www.w3.org/2000/svg" xmlns:xlink="http://www.w3.org/1999/xlink" x="0px" y="0px"
	 width="32px" height="32px" viewBox="0 0 32 32" enable-background="new 0 0 32 32" xml:space="preserve">
<path fill="#69221E" d="M28,8V4H0v22c0,1.105,0.895,2,2,2h27c1.657,0,3-1.343,3-3V8H28z M26,26H2V6h24V26z M4,10h20v2H4V10z M16,14
	h8v2h-8V14z M16,18h8v2h-8V18z M16,22h6v2h-6V22z M4,14h10v10H4V14z"/>
</svg>
