<?xml version="1.0" encoding="utf-8"?>
<!-- Generator: Adobe Illustrator 16.0.0, SVG Export Plug-In . SVG Version: 6.00 Build 0)  -->
<!DOCTYPE svg PUBLIC "-//W3C//DTD SVG 1.1//EN" "http://www.w3.org/Graphics/SVG/1.1/DTD/svg11.dtd">
<svg version="1.1" id="Calque_1" xmlns="http://www.w3.org/2000/svg" xmlns:xlink="http://www.w3.org/1999/xlink" x="0px" y="0px"
	 width="32px" height="32px" viewBox="0 0 32 32" enable-background="new 0 0 32 32" xml:space="preserve">
<path fill="#69221E" d="M15,2C6.716,2,0,8.716,0,17s6.716,15,15,15s15-6.716,15-15S23.284,2,15,2z M23.486,22
	c0.269-1.264,0.438-2.605,0.492-4h3.983c-0.104,1.381-0.426,2.723-0.959,4H23.486z M6.513,12c-0.268,1.264-0.437,2.606-0.492,4
	H2.038c0.104-1.381,0.426-2.722,0.959-4H6.513z M21.439,12c0.299,1.28,0.48,2.62,0.539,4H16v-4H21.439z M16,10V4.146
	c0.456,0.133,0.908,0.355,1.352,0.668c0.83,0.586,1.625,1.488,2.297,2.609c0.465,0.775,0.867,1.638,1.203,2.578L16,10L16,10z
	 M10.351,7.422c0.673-1.121,1.467-2.023,2.298-2.609C13.092,4.5,13.544,4.278,14,4.145v5.854H9.148
	C9.484,9.059,9.886,8.196,10.351,7.422L10.351,7.422z M14,12v4H8.021c0.059-1.38,0.24-2.72,0.54-4H14z M2.997,22
	c-0.533-1.277-0.854-2.619-0.959-4h3.983c0.055,1.395,0.224,2.736,0.492,4H2.997z M8.021,18H14v4H8.561
	C8.261,20.72,8.08,19.38,8.021,18z M14,24v5.854c-0.456-0.133-0.908-0.354-1.351-0.668c-0.831-0.586-1.625-1.487-2.298-2.608
	c-0.465-0.775-0.867-1.638-1.203-2.578L14,24L14,24z M19.648,26.578c-0.672,1.121-1.467,2.023-2.297,2.609
	c-0.443,0.312-0.896,0.535-1.352,0.668v-5.854h4.852C20.516,24.941,20.113,25.803,19.648,26.578L19.648,26.578z M16,22v-4h5.979
	c-0.059,1.38-0.24,2.72-0.539,4H16z M23.98,16c-0.056-1.394-0.225-2.736-0.492-4h3.516c0.533,1.278,0.855,2.619,0.959,4H23.98z
	 M25.958,10h-2.997c-0.582-1.836-1.387-3.447-2.354-4.732c1.328,0.636,2.533,1.488,3.584,2.54C24.863,8.479,25.453,9.212,25.958,10z
	 M5.808,7.808c1.052-1.052,2.256-1.904,3.585-2.54C8.426,6.553,7.622,8.164,7.039,10H4.042C4.546,9.212,5.136,8.479,5.808,7.808z
	 M4.042,24h2.997c0.583,1.836,1.387,3.447,2.354,4.732c-1.329-0.637-2.533-1.488-3.585-2.541C5.137,25.521,4.547,24.788,4.042,24z
	 M24.191,26.191c-1.051,1.053-2.256,1.904-3.584,2.541c0.967-1.285,1.771-2.896,2.354-4.732h2.997
	C25.454,24.788,24.863,25.521,24.191,26.191z"/>
</svg>
